<svg width="1820" height="600" viewBox="0 0 1820 600" fill="none" xmlns="http://www.w3.org/2000/svg">
<path d="M1656.34 197.253V306.94M1656.34 306.94L1625.75 308.075M1656.34 306.94L1668.74 309.739M1625.75 308.075V198.389M1625.75 308.075L1638.15 310.874" stroke="black" stroke-linecap="round"/>
<path d="M1656.34 306.94L1625.75 308.075V198.389L1656.34 306.94ZM1668.74 309.739L1656.34 306.94V197.253L1668.74 309.739ZM1638.15 310.874L1625.75 308.075L1656.34 306.94L1638.15 310.874ZM1656.34 197.253V306.94L1625.75 198.389L1656.34 197.253Z" fill="#F0F0F0" fill-opacity="0.36"/>
<path d="M1625.75 198.389L1656.34 197.253L1668.74 200.053" stroke="black" stroke-linecap="round"/>
<path d="M1668.75 309.74L1638.16 310.875L1656.34 306.94L1668.75 309.74Z" fill="#F0F0F0" fill-opacity="0.36"/>
<path d="M1588.97 199.753V309.439M1588.97 309.439L1558.38 310.575M1588.97 309.439L1601.37 312.239M1638.15 310.874L1668.75 309.739V200.053M1625.75 198.389L1638.15 201.188" stroke="black" stroke-linecap="round"/>
<path d="M1668.74 200.053V309.739L1656.34 197.253L1668.74 200.053ZM1668.74 200.053L1656.34 197.253L1625.75 198.389L1668.74 200.053ZM1625.75 198.389V308.075L1638.15 201.188L1625.75 198.389Z" fill="#F0F0F0" fill-opacity="0.36"/>
<path d="M1558.38 200.89V310.576L1570.78 313.376" stroke="black" stroke-linecap="round"/>
<path d="M1625.75 308.073L1638.15 310.872V201.188L1625.75 308.073Z" fill="#F0F0F0" fill-opacity="0.36"/>
<path d="M1613.82 249.396L1612.46 256.461L1616.01 255.224L1613.82 249.396ZM1612.46 256.461L1616.01 261.818V255.224L1612.46 256.461Z" fill="black"/>
<path d="M1638.16 310.872L1668.75 309.737V200.052L1638.16 310.872Z" fill="#F0F0F0" fill-opacity="0.36"/>
<path d="M1638.16 201.188V310.872" stroke="black" stroke-linecap="round"/>
<path d="M1588.97 309.441L1558.38 310.576V200.89L1588.97 309.441ZM1601.37 312.241L1588.97 309.441V199.755L1601.37 312.241Z" fill="#F0F0F0" fill-opacity="0.36"/>
<path d="M1598.84 255.859L1616.01 255.222Z" fill="black"/>
<path d="M1598.84 255.859L1616.01 255.222" stroke="black" stroke-linecap="round"/>
<path d="M1570.78 313.374L1558.38 310.574L1588.97 309.439L1570.78 313.374Z" fill="#F0F0F0" fill-opacity="0.36"/>
<path d="M1619.56 258.062L1616.01 261.818L1628.27 254.769L1619.56 258.062ZM1618.2 250.385L1613.82 249.396L1616.01 255.224L1618.2 250.385Z" fill="black"/>
<path d="M1588.97 199.755V309.44L1558.38 200.89L1588.97 199.755Z" fill="#F0F0F0" fill-opacity="0.36"/>
<path d="M1616.01 261.818L1619.56 258.062L1616.01 255.224V261.818ZM1618.2 250.385L1619.56 258.062L1628.27 254.769L1618.2 250.385Z" fill="black"/>
<path d="M1558.38 200.89L1588.97 199.755L1601.37 202.554" stroke="black" stroke-linecap="round"/>
<path d="M1619.56 258.062L1618.2 250.385L1616.01 255.224L1619.56 258.062Z" fill="black"/>
<path d="M1638.15 201.188L1668.75 200.053L1625.75 198.389L1638.15 201.188ZM1601.37 312.239L1570.78 313.374L1588.97 309.44L1601.37 312.239Z" fill="#F0F0F0" fill-opacity="0.36"/>
<path d="M1521.59 191.285V322.908M1521.59 322.908L1491 324.043M1521.59 322.908L1534 325.707M1638.15 201.189L1668.75 200.053" stroke="black" stroke-linecap="round"/>
<path d="M1638.16 201.187V310.872L1668.75 200.052L1638.16 201.187Z" fill="#F0F0F0" fill-opacity="0.36"/>
<path d="M1570.78 313.376L1601.37 312.241V202.555M1558.38 200.89L1570.78 203.69" stroke="black" stroke-linecap="round"/>
<path d="M1601.37 202.554V312.241L1588.97 199.755L1601.37 202.554ZM1601.37 202.554L1588.97 199.755L1558.38 200.89L1601.37 202.554Z" fill="#F0F0F0" fill-opacity="0.36"/>
<path d="M1491 192.42V324.043L1503.41 326.842" stroke="black" stroke-linecap="round"/>
<path d="M1558.38 200.89V310.576L1570.78 203.69L1558.38 200.89ZM1558.38 310.576L1570.78 313.376V203.69L1558.38 310.576Z" fill="#F0F0F0" fill-opacity="0.36"/>
<path d="M1546.44 251.894L1545.09 258.96L1548.63 257.722L1546.44 251.894ZM1545.09 258.96L1548.63 264.316V257.722L1545.09 258.96Z" fill="black"/>
<path d="M1570.78 313.373L1601.37 312.238V202.553L1570.78 313.373ZM1521.59 322.907L1491 324.042V192.42L1521.59 322.907Z" fill="#F0F0F0" fill-opacity="0.36"/>
<path d="M1570.78 203.689V313.374" stroke="black" stroke-linecap="round"/>
<path d="M1503.41 326.843L1491 324.043L1521.59 322.908L1503.41 326.843ZM1534 325.708L1521.59 322.908V191.285L1534 325.708Z" fill="#F0F0F0" fill-opacity="0.36"/>
<path d="M1531.47 258.361L1548.64 257.724Z" fill="black"/>
<path d="M1531.47 258.361L1548.64 257.724" stroke="black" stroke-linecap="round"/>
<path d="M1552.18 260.56L1548.63 264.316L1560.9 257.267L1552.18 260.56ZM1550.83 252.883L1546.44 251.894L1548.63 257.722L1550.83 252.883Z" fill="black"/>
<path d="M1521.59 191.285V322.907L1491 192.42L1521.59 191.285Z" fill="#F0F0F0" fill-opacity="0.36"/>
<path d="M1548.63 264.316L1552.18 260.56L1548.63 257.722V264.316ZM1550.82 252.883L1552.18 260.56L1560.89 257.268L1550.82 252.883Z" fill="black"/>
<path d="M1534 325.708L1503.4 326.843L1521.59 322.908L1534 325.708Z" fill="#F0F0F0" fill-opacity="0.36"/>
<path d="M1552.18 260.56L1550.82 252.883L1548.63 257.722L1552.18 260.56Z" fill="black"/>
<path d="M1570.78 203.69L1601.37 202.555L1558.38 200.89L1570.78 203.69Z" fill="#F0F0F0" fill-opacity="0.36"/>
<path d="M1491 192.42L1521.59 191.285L1534 194.085M1570.78 203.689L1601.37 202.553" stroke="black" stroke-linecap="round"/>
<path d="M1570.78 203.689V313.374L1601.37 202.554L1570.78 203.689Z" fill="#F0F0F0" fill-opacity="0.36"/>
<path d="M1503.4 326.841L1534 325.706V194.084" stroke="black" stroke-linecap="round"/>
<path d="M1533.99 194.085V325.707L1521.59 191.285L1533.99 194.085Z" fill="#F0F0F0" fill-opacity="0.36"/>
<path d="M1491 192.42L1503.41 195.22" stroke="black" stroke-linecap="round"/>
<path d="M1491 192.42V324.043L1503.41 195.22L1491 192.42ZM1534 194.085L1521.59 191.285L1491 192.42L1534 194.085ZM1491 324.043L1503.41 326.843V195.22L1491 324.043Z" fill="#F0F0F0" fill-opacity="0.36"/>
<path d="M1503.4 195.219V326.841" stroke="black" stroke-linecap="round"/>
<path d="M1479.07 254.396L1477.72 261.462L1481.26 260.224L1479.07 254.396Z" fill="black"/>
<path d="M1503.4 326.841L1534 325.706V194.084L1503.4 326.841Z" fill="#F0F0F0" fill-opacity="0.36"/>
<path d="M1477.72 261.459L1481.26 266.815V260.222L1477.72 261.459Z" fill="black"/>
<path d="M1464.1 260.859L1481.26 260.222Z" fill="black"/>
<path d="M1464.1 260.859L1481.26 260.222" stroke="black" stroke-linecap="round"/>
<path d="M1484.81 263.062L1481.27 266.818L1493.53 259.769L1484.81 263.062ZM1483.46 255.385L1479.07 254.396L1481.27 260.224L1483.46 255.385ZM1481.27 266.818L1484.81 263.062L1481.27 260.224V266.818ZM1483.46 255.385L1484.81 263.062L1493.53 259.769L1483.46 255.385ZM1484.81 263.062L1483.46 255.385L1481.27 260.224L1484.81 263.062Z" fill="black"/>
<path d="M1503.41 195.219L1534 194.084L1491 192.42L1503.41 195.219ZM1503.41 195.219V326.842L1534 194.084L1503.41 195.219Z" fill="#F0F0F0" fill-opacity="0.36"/>
<path d="M1503.41 195.219L1534 194.084M1444.38 260.076V262.714M1444.38 260.076L1260.82 266.887M1444.38 260.076L1445.87 260.413M1444.38 262.714L1260.82 269.525M1444.38 262.714L1445.87 263.05" stroke="#A1A1A1" stroke-linecap="round"/>
<path d="M1445.92 263.05L1444.38 262.713V260.076L1445.92 263.05ZM1445.92 260.412V263.05L1444.38 260.076L1445.92 260.412Z" fill="#F0F0F0" fill-opacity="0.36"/>
<path d="M1262.3 269.862L1445.87 263.051V260.414L1262.3 267.225" stroke="#A1A1A1" stroke-linecap="round"/>
<path d="M1261.81 267.623V268.987L1261.32 269.005V267.512L1261.81 267.623ZM1445.37 262.423L1444.88 262.313V260.963L1445.37 260.938V262.423Z" fill="#F0F0F0" fill-opacity="0.36" stroke="#A1A1A1"/>
<path d="M1218.58 257.371V279.308M1218.58 279.308L1035.01 286.119M1218.58 279.308L1230.98 282.108M1262.31 269.862L1260.81 269.525V266.888L1262.31 267.224" stroke="#A1A1A1" stroke-linecap="round"/>
<path d="M1260.82 266.887V269.524L1262.36 267.223L1260.82 266.887Z" fill="#F0F0F0" fill-opacity="0.36"/>
<path d="M1228.25 262.744L1261.56 268.376M1261.56 268.376L1228.25 268.018M1261.56 268.376L1231.23 268.692M1261.56 268.376L1231.23 263.417" stroke="black" stroke-linecap="round"/>
<path d="M1260.82 269.525L1262.36 269.862V267.225L1260.82 269.525Z" fill="#F0F0F0" fill-opacity="0.36"/>
<path d="M1262.31 267.224V269.862M1035.01 264.182L1218.58 257.371L1230.98 260.171" stroke="#A1A1A1" stroke-linecap="round"/>
<path d="M1230.98 282.108L1218.58 279.308V257.371L1230.98 282.108Z" fill="#F0F0F0" fill-opacity="0.36"/>
<path d="M1228.25 268.018V262.744L1261.56 268.376L1228.25 268.018ZM1231.23 268.692L1228.25 268.018L1261.56 268.376L1231.23 268.692ZM1228.25 262.744L1231.23 263.417L1261.56 268.376L1228.25 262.744Z" fill="#FE9090" fill-opacity="0.7"/>
<path d="M1230.98 260.171V282.108L1218.58 257.371L1230.98 260.171Z" fill="#F0F0F0" fill-opacity="0.36"/>
<path d="M1231.23 263.416V268.691L1261.56 268.375L1231.23 263.416Z" fill="#FE9090" fill-opacity="0.7"/>
<path d="M1228.25 262.744V268.018M1228.25 262.744L1044.69 269.555M1228.25 262.744L1231.23 263.417M1228.25 268.018L1044.69 274.829M1228.25 268.018L1231.23 268.692" stroke="black" stroke-linecap="round"/>
<path d="M1218.58 257.371V279.308L1035.01 264.182L1218.58 257.371Z" fill="#F0F0F0" fill-opacity="0.36"/>
<path d="M1231.23 268.692L1228.25 268.018V262.744L1231.23 268.692Z" fill="#4BB3E7" fill-opacity="0.7"/>
<path d="M1228.25 262.744V268.018L1231.23 268.692L1228.25 262.744Z" fill="#FE9090" fill-opacity="0.7"/>
<path d="M1047.42 288.919L1230.98 282.108V260.17" stroke="black" stroke-linecap="round"/>
<path d="M1231.23 263.417V268.692L1228.25 262.744L1231.23 263.417Z" fill="#4BB3E7" fill-opacity="0.7"/>
<path d="M1228.25 262.744L1231.23 268.692V263.417L1228.25 262.744Z" fill="#FE9090" fill-opacity="0.7"/>
<path d="M1047.66 275.501L1231.23 268.69V263.415L1047.66 270.226M1047.42 266.981L1230.98 260.17" stroke="black" stroke-linecap="round"/>
<path d="M1230.98 260.171L1218.58 257.371L1035.01 264.182L1230.98 260.171ZM1230.98 282.108L1047.42 288.919L1218.58 279.308L1230.98 282.108ZM1218.58 279.308L1035.01 286.119V264.182L1218.58 279.308Z" fill="#F0F0F0" fill-opacity="0.36"/>
<path d="M1228.25 262.744V268.018L1044.69 269.555L1228.25 262.744ZM1231.23 263.417L1228.25 262.744L1044.69 269.555L1231.23 263.417ZM1231.23 268.692L1047.67 275.503L1228.25 268.018L1231.23 268.692Z" fill="#4BB3E7" fill-opacity="0.7"/>
<path d="M1047.42 288.919L1230.98 282.108V260.17L1047.42 288.919Z" fill="#F0F0F0" fill-opacity="0.36"/>
<path d="M1047.66 275.502L1231.23 268.691V263.416L1047.66 275.502Z" fill="#4BB3E7" fill-opacity="0.7"/>
<path d="M1047.42 288.919L1035.01 286.12L1218.58 279.309L1047.42 288.919Z" fill="#F0F0F0" fill-opacity="0.36"/>
<path d="M1035.01 264.182V286.119L1047.42 288.919" stroke="black" stroke-linecap="round"/>
<path d="M1047.42 266.981L1230.98 260.17L1035.01 264.182L1047.42 266.981Z" fill="#F0F0F0" fill-opacity="0.36"/>
<path d="M1228.25 268.019L1044.69 274.83V269.555L1228.25 268.019ZM1047.67 275.503L1044.69 274.83L1228.25 268.019L1047.67 275.503Z" fill="#4BB3E7" fill-opacity="0.7"/>
<path d="M1035.01 264.182L1047.42 266.982" stroke="black" stroke-linecap="round"/>
<path d="M1047.67 270.227L1231.23 263.416L1044.69 269.554L1047.67 270.227Z" fill="#4BB3E7" fill-opacity="0.7"/>
<path d="M1047.42 266.981V288.919L1230.98 260.17L1047.42 266.981Z" fill="#F0F0F0" fill-opacity="0.36"/>
<path d="M1047.66 270.227V275.502L1231.23 263.416L1047.66 270.227Z" fill="#4BB3E7" fill-opacity="0.7"/>
<path d="M1035.01 264.182V286.119L1047.42 266.982L1035.01 264.182Z" fill="#F0F0F0" fill-opacity="0.36"/>
<path d="M998.234 265.549V287.486M998.234 265.549L814.672 272.36M998.234 265.549L1010.64 268.348M998.234 287.486L814.672 294.297M998.234 287.486L1010.64 290.286M1003.95 270.152L1042.22 271.761M1042.22 271.761L1003.95 275.426M1042.22 271.761L1006.93 276.1M1042.22 271.761L1006.93 270.825" stroke="black" stroke-linecap="round"/>
<path d="M1035.02 286.121L1047.42 288.921V266.984L1035.02 286.121ZM1010.64 290.285L998.234 287.486V265.549L1010.64 290.285Z" fill="#F0F0F0" fill-opacity="0.36"/>
<path d="M1047.67 275.503L1044.69 274.829V269.555L1047.67 270.228" stroke="black" stroke-linecap="round"/>
<path d="M1003.95 275.424V270.149L1042.22 271.759L1003.95 275.424Z" fill="#FE9090" fill-opacity="0.7"/>
<path d="M1044.69 269.555V274.829L1047.67 270.228L1044.69 269.555Z" fill="#4BB3E7" fill-opacity="0.7"/>
<path d="M1047.42 266.981V288.919" stroke="black" stroke-linecap="round"/>
<path d="M1006.93 276.097L1003.95 275.424L1042.22 271.759L1006.93 276.097ZM1003.95 270.149L1006.93 270.823L1042.22 271.759L1003.95 270.149Z" fill="#FE9090" fill-opacity="0.7"/>
<path d="M1003.95 270.149V275.424M1003.95 275.424L1006.93 276.097M1003.95 275.424L820.389 282.235" stroke="black" stroke-linecap="round"/>
<path d="M1044.69 274.829L1047.67 275.502V270.227L1044.69 274.829Z" fill="#4BB3E7" fill-opacity="0.7"/>
<path d="M1006.93 270.823L1003.95 270.149L820.389 276.96" stroke="black" stroke-linecap="round"/>
<path d="M1006.93 270.822V276.097L1042.22 271.758L1006.93 270.822Z" fill="#FE9090" fill-opacity="0.7"/>
<path d="M1047.66 270.227V275.502" stroke="black" stroke-linecap="round"/>
<path d="M1006.93 276.097L1003.95 275.424V270.149L1006.93 276.097Z" fill="#4BB3E7" fill-opacity="0.7"/>
<path d="M1003.95 270.149V275.424L1006.93 276.097L1003.95 270.149Z" fill="#FE9090" fill-opacity="0.7"/>
<path d="M1006.93 270.823V276.097L1003.95 270.149L1006.93 270.823Z" fill="#4BB3E7" fill-opacity="0.7"/>
<path d="M1003.95 270.149L1006.93 276.097V270.823L1003.95 270.149Z" fill="#FE9090" fill-opacity="0.7"/>
<path d="M1010.64 268.348V290.285L998.234 265.549L1010.64 268.348Z" fill="#F0F0F0" fill-opacity="0.36"/>
<path d="M823.371 282.908L1006.93 276.097V270.822L823.371 277.633" stroke="black" stroke-linecap="round"/>
<path d="M998.234 265.549V287.486L814.672 272.36L998.234 265.549Z" fill="#F0F0F0" fill-opacity="0.36"/>
<path d="M827.076 297.096L1010.64 290.285V268.348L827.076 275.159" stroke="black" stroke-linecap="round"/>
<path d="M1010.64 268.348L998.233 265.549L814.672 272.36L1010.64 268.348Z" fill="#F0F0F0" fill-opacity="0.36"/>
<path d="M1003.95 270.149V275.424L820.389 276.96L1003.95 270.149Z" fill="#4BB3E7" fill-opacity="0.7"/>
<path d="M1010.64 290.284L827.076 297.095L998.233 287.485L1010.64 290.284Z" fill="#F0F0F0" fill-opacity="0.36"/>
<path d="M1006.93 270.823L1003.95 270.149L820.389 276.96L1006.93 270.823ZM1006.93 276.097L823.371 282.908L1003.95 275.424L1006.93 276.097ZM823.371 282.908L1006.93 276.097V270.823L823.371 282.908Z" fill="#4BB3E7" fill-opacity="0.7"/>
<path d="M998.233 287.486L814.672 294.297V272.699L827.077 275.299V297.096L998.233 287.486ZM827.077 297.096V275.299L1010.64 268.348L827.077 297.096ZM827.077 297.096L814.672 294.297L998.233 287.486L827.077 297.096Z" fill="#F0F0F0" fill-opacity="0.36"/>
<path d="M769.693 257.373V308.309M769.693 308.309L586.131 315.12M769.693 308.309L798.496 314.81" stroke="black" stroke-linecap="round"/>
<path d="M1003.95 275.424L820.389 282.235V276.96L1003.95 275.424ZM823.371 282.908L820.389 282.235L1003.95 275.424L823.371 282.908ZM823.371 277.633L1006.93 270.822L820.389 276.96L823.371 277.633Z" fill="#4BB3E7" fill-opacity="0.7"/>
<path d="M770.832 277.841V285.753M770.832 285.753L587.27 292.564M770.832 285.753L775.306 286.763M770.832 285.753L816.126 283.096M814.671 272.36V294.297L827.076 297.096" stroke="black" stroke-linecap="round"/>
<path d="M827.079 275.159L1010.64 268.348L815.514 272.374L827.079 275.159Z" fill="#F0F0F0" fill-opacity="0.36"/>
<path d="M823.371 277.633V282.908L1006.93 270.822L823.371 277.633Z" fill="#4BB3E7" fill-opacity="0.7"/>
<path d="M770.831 277.839L587.27 284.65M770.831 277.839L775.305 278.849M770.831 277.839L816.125 283.093" stroke="black" stroke-linecap="round"/>
<path d="M770.834 285.751V277.839L816.128 283.093L770.834 285.751Z" fill="#FE9090" fill-opacity="0.7"/>
<path d="M586.131 264.184L769.693 257.373L798.496 263.873" stroke="black" stroke-linecap="round"/>
<path d="M775.308 286.761L770.834 285.751V277.839L775.308 286.761Z" fill="#4BB3E7" fill-opacity="0.7"/>
<path d="M770.834 277.839V285.751L775.308 286.761L770.834 277.839Z" fill="#FE9090" fill-opacity="0.7"/>
<path d="M814.672 272.36L827.077 275.159" stroke="black" stroke-linecap="round"/>
<path d="M775.308 286.76L770.834 285.751L816.128 283.093L775.308 286.76Z" fill="#FE9090" fill-opacity="0.7"/>
<path d="M775.309 286.761L816.128 283.094L775.309 278.849" stroke="black" stroke-linecap="round"/>
<path d="M770.834 277.839L775.308 278.849L816.128 283.093L770.834 277.839Z" fill="#FE9090" fill-opacity="0.7"/>
<path d="M775.308 278.849V286.761L770.834 277.839L775.308 278.849Z" fill="#4BB3E7" fill-opacity="0.7"/>
<path d="M770.834 277.839L775.308 286.761V278.849L770.834 277.839Z" fill="#FE9090" fill-opacity="0.7"/>
<path d="M827.076 275.298V297.095L1010.64 290.249V268.797L827.076 275.298Z" fill="#F0F0F0" fill-opacity="0.36"/>
<path d="M775.309 278.849V286.761L816.128 283.094L775.309 278.849Z" fill="#FE9090" fill-opacity="0.7"/>
<path d="M591.746 293.572L775.308 286.761V278.849L591.746 285.66" stroke="black" stroke-linecap="round"/>
<path d="M814.672 272.36V294.297L827.077 275.159L814.672 272.36Z" fill="#F0F0F0" fill-opacity="0.36"/>
<path d="M823.371 282.908L820.389 282.235V276.96L823.371 277.633" stroke="black" stroke-linecap="round"/>
<path d="M798.495 314.81L769.691 308.31V257.373L798.495 314.81Z" fill="#F0F0F0" fill-opacity="0.36"/>
<path d="M820.389 276.96V282.235L823.371 277.633L820.389 276.96Z" fill="#4BB3E7" fill-opacity="0.7"/>
<path d="M814.672 294.297L827.077 297.096V275.159L814.672 294.297Z" fill="#F0F0F0" fill-opacity="0.36"/>
<path d="M820.389 282.235L823.371 282.909V277.634L820.389 282.235Z" fill="#4BB3E7" fill-opacity="0.7"/>
<path d="M769.693 257.373V308.31L586.131 264.184L769.693 257.373Z" fill="#F0F0F0" fill-opacity="0.36"/>
<path d="M823.371 277.634V282.909" stroke="black" stroke-linecap="round"/>
<path d="M770.831 277.839V285.751L587.27 284.65L770.831 277.839ZM775.306 278.849L770.831 277.839L587.27 284.65L775.306 278.849Z" fill="#4BB3E7" fill-opacity="0.7"/>
<path d="M827.076 275.159V297.096" stroke="black" stroke-linecap="round"/>
<path d="M775.308 286.761L591.746 293.572L770.834 285.752L775.308 286.761ZM591.746 293.572L775.308 286.761V278.849L591.746 293.572Z" fill="#4BB3E7" fill-opacity="0.7"/>
<path d="M769.693 308.309L586.131 315.12V264.184L769.693 308.309ZM798.496 263.873V314.81L769.693 257.373L798.496 263.873Z" fill="#F0F0F0" fill-opacity="0.36"/>
<path d="M770.831 285.751L587.27 292.562V284.649L770.831 285.751Z" fill="#4BB3E7" fill-opacity="0.7"/>
<path d="M798.496 263.873L769.693 257.373L586.131 264.184L798.496 263.873Z" fill="#F0F0F0" fill-opacity="0.36"/>
<path d="M591.744 293.572L587.27 292.563L770.831 285.752L591.744 293.572ZM591.744 285.66L775.306 278.849L587.27 284.65L591.744 285.66ZM591.744 285.66V293.572L775.306 278.849L591.744 285.66Z" fill="#4BB3E7" fill-opacity="0.7"/>
<path d="M614.934 321.621L798.495 314.81V263.874" stroke="black" stroke-linecap="round"/>
<path d="M798.496 314.809L614.934 321.62L769.693 308.309L798.496 314.809ZM614.934 321.62L586.131 315.12L769.693 308.309L614.934 321.62Z" fill="#F0F0F0" fill-opacity="0.36"/>
<path d="M614.934 321.621L586.131 315.121V264.184L614.934 270.685L798.496 263.874M591.746 293.573L587.272 292.563V284.651L591.746 285.661" stroke="black" stroke-linecap="round"/>
<path d="M587.27 284.649V292.562L591.744 285.659L587.27 284.649Z" fill="#4BB3E7" fill-opacity="0.7"/>
<path d="M549.349 265.549V316.485M549.349 316.485L396.381 322.161M549.349 316.485L578.153 322.986" stroke="black" stroke-linecap="round"/>
<path d="M587.27 292.562L591.744 293.572V285.66L587.27 292.562Z" fill="#4BB3E7" fill-opacity="0.7"/>
<path d="M591.746 285.66V293.572" stroke="black" stroke-linecap="round"/>
<path d="M614.934 321.621L798.495 314.81V263.874L614.934 321.621Z" fill="#F0F0F0" fill-opacity="0.36"/>
<path d="M396.381 271.225L549.349 265.549L578.153 272.049" stroke="black" stroke-linecap="round"/>
<path d="M586.13 264.184V315.121L614.934 270.685L586.13 264.184ZM614.934 270.685L798.495 263.874L586.13 264.184L614.934 270.685ZM578.153 322.986L549.349 316.485V265.549L578.153 322.986ZM549.349 265.549V316.485L396.381 271.225L549.349 265.549Z" fill="#F0F0F0" fill-opacity="0.36"/>
<path d="M565.217 283.457L603.489 285.066M603.489 285.066L565.217 288.731M603.489 285.066L568.2 289.404M603.489 285.066L568.2 284.13" stroke="black" stroke-linecap="round"/>
<path d="M586.131 315.121L614.934 321.621V270.685L586.131 315.121ZM614.934 270.685V321.621L798.496 263.874L614.934 270.685Z" fill="#F0F0F0" fill-opacity="0.36"/>
<path d="M565.217 288.731V283.457L603.489 285.066L565.217 288.731ZM568.2 289.404L565.217 288.731L603.489 285.066L568.2 289.404Z" fill="#FE9090" fill-opacity="0.7"/>
<path d="M549.349 316.486L396.381 322.162V271.225L549.349 316.486Z" fill="#F0F0F0" fill-opacity="0.36"/>
<path d="M565.217 283.457L568.2 284.13L603.489 285.066L565.217 283.457Z" fill="#FE9090" fill-opacity="0.7"/>
<path d="M565.216 283.457V288.731M565.216 283.457L568.199 284.13M565.216 283.457L412.248 289.132M565.216 288.731L568.199 289.404M565.216 288.731L412.248 294.407" stroke="black" stroke-linecap="round"/>
<path d="M568.2 284.13V289.404L603.489 285.066L568.2 284.13ZM565.217 283.457V288.731L568.2 289.404L565.217 283.457Z" fill="#FE9090" fill-opacity="0.7"/>
<path d="M568.2 289.404L565.217 288.731V283.457L568.2 289.404Z" fill="#4BB3E7" fill-opacity="0.7"/>
<path d="M565.217 283.457L568.2 289.404V284.13L565.217 283.457Z" fill="#FE9090" fill-opacity="0.7"/>
<path d="M568.2 284.13V289.404L565.217 283.457L568.2 284.13Z" fill="#4BB3E7" fill-opacity="0.7"/>
<path d="M415.23 295.08L568.199 289.404V284.129L415.23 289.805" stroke="black" stroke-linecap="round"/>
<path d="M578.153 272.049V322.986L549.349 265.549L578.153 272.049ZM578.153 272.049L549.349 265.549L396.381 271.225L578.153 272.049Z" fill="#F0F0F0" fill-opacity="0.36"/>
<path d="M614.934 270.684V321.62M353.398 260.22V333.094M353.398 333.094L200.43 338.77M353.398 333.094L394.607 342.394M396.382 271.224V322.16L425.185 328.661" stroke="black" stroke-linecap="round"/>
<path d="M425.185 328.663L396.381 322.162L549.349 316.486L425.185 328.663Z" fill="#F0F0F0" fill-opacity="0.36"/>
<path d="M565.216 283.457V288.731L412.248 289.132L565.216 283.457Z" fill="#4BB3E7" fill-opacity="0.7"/>
<path d="M578.154 322.987L425.186 328.663L549.35 316.486L578.154 322.987Z" fill="#F0F0F0" fill-opacity="0.36"/>
<path d="M568.199 284.13L565.216 283.457L412.248 289.132L568.199 284.13Z" fill="#4BB3E7" fill-opacity="0.7"/>
<path d="M425.186 328.661L578.154 322.985V272.049" stroke="black" stroke-linecap="round"/>
<path d="M568.199 289.403L415.23 295.079L565.216 288.73L568.199 289.403Z" fill="#4BB3E7" fill-opacity="0.7"/>
<path d="M396.381 271.225L425.185 277.726" stroke="black" stroke-linecap="round"/>
<path d="M415.23 295.08L568.199 289.404V284.129L415.23 295.08Z" fill="#4BB3E7" fill-opacity="0.7"/>
<path d="M200.43 265.896L353.398 260.22L394.606 269.52M425.185 277.724L578.153 272.048" stroke="black" stroke-linecap="round"/>
<path d="M565.216 288.73L412.248 294.406V289.131L565.216 288.73ZM415.231 295.079L412.248 294.406L565.216 288.73L415.231 295.079Z" fill="#4BB3E7" fill-opacity="0.7"/>
<path d="M353.398 260.22V333.094L200.43 265.896L353.398 260.22ZM396.382 271.224V322.16L425.185 277.724L396.382 271.224Z" fill="#F0F0F0" fill-opacity="0.36"/>
<path d="M415.231 289.805L568.199 284.129L412.248 289.132L415.231 289.805ZM415.231 289.805V295.08L568.199 284.129L415.231 289.805Z" fill="#4BB3E7" fill-opacity="0.7"/>
<path d="M425.185 328.661L578.153 322.985V272.048L425.185 328.661ZM394.606 342.394L353.398 333.094V260.22L394.606 342.394ZM425.185 277.724L578.153 272.048L396.381 271.224L425.185 277.724ZM353.398 333.094L200.43 338.77V265.896L353.398 333.094Z" fill="#F0F0F0" fill-opacity="0.36"/>
<path d="M415.231 295.081L412.248 294.408V289.133L415.231 289.806" stroke="black" stroke-linecap="round"/>
<path d="M412.248 289.133V294.408L415.231 289.806L412.248 289.133Z" fill="#4BB3E7" fill-opacity="0.7"/>
<path d="M396.381 322.161L425.185 328.662V277.725L396.381 322.161Z" fill="#F0F0F0" fill-opacity="0.36"/>
<path d="M412.248 294.407L415.231 295.08V289.805L412.248 294.407Z" fill="#4BB3E7" fill-opacity="0.7"/>
<path d="M415.23 289.805V295.08" stroke="black" stroke-linecap="round"/>
<path d="M425.186 277.725V328.661L578.154 272.049L425.186 277.725Z" fill="#F0F0F0" fill-opacity="0.36"/>
<path d="M200.43 265.896V338.77L241.638 348.07" stroke="black" stroke-linecap="round"/>
<path d="M394.607 269.52L353.398 260.22L200.43 265.896L394.607 269.52Z" fill="#F0F0F0" fill-opacity="0.36"/>
<path d="M387.836 294.641L422.016 298.401M422.016 298.401L387.836 302.553M422.016 298.401L392.31 303.563M422.016 298.401L392.31 295.651M425.185 277.725V328.662" stroke="black" stroke-linecap="round"/>
<path d="M241.638 348.072L200.43 338.772L353.398 333.096L241.638 348.072Z" fill="#F0F0F0" fill-opacity="0.36"/>
<path d="M163.648 267.261V340.135M163.648 340.135L115.158 341.934M163.648 340.135L204.857 349.435M200.429 265.896L241.638 275.196" stroke="black" stroke-linecap="round"/>
<path d="M394.605 269.52V342.394L353.396 260.22L394.605 269.52Z" fill="#F0F0F0" fill-opacity="0.36"/>
<path d="M387.836 302.554V294.642L422.016 298.402L387.836 302.554Z" fill="#FE9090" fill-opacity="0.7"/>
<path d="M394.605 342.396L241.637 348.072L353.396 333.096L394.605 342.396Z" fill="#F0F0F0" fill-opacity="0.36"/>
<path d="M392.31 303.564L387.836 302.554L422.016 298.402L392.31 303.564ZM387.836 294.642L392.31 295.652L422.016 298.402L387.836 294.642Z" fill="#FE9090" fill-opacity="0.7"/>
<path d="M115.158 269.061L163.648 267.262L204.857 276.562M387.836 294.641V302.553M387.836 302.553L392.31 303.563M387.836 302.553L234.867 308.229" stroke="black" stroke-linecap="round"/>
<path d="M163.648 267.262V340.135L115.158 269.061L163.648 267.262Z" fill="#F0F0F0" fill-opacity="0.36"/>
<path d="M392.311 295.651V303.564L422.017 298.402L392.311 295.651Z" fill="#FE9090" fill-opacity="0.7"/>
<path d="M392.31 295.652L387.836 294.642L234.867 300.318" stroke="black" stroke-linecap="round"/>
<path d="M163.648 340.136L115.158 341.936V269.062L163.648 340.136Z" fill="#F0F0F0" fill-opacity="0.36"/>
<path d="M115.158 269.062V341.935L156.367 351.235" stroke="black" stroke-linecap="round"/>
<path d="M387.836 294.642V302.554L392.31 303.564L387.836 294.642Z" fill="#FE9090" fill-opacity="0.7"/>
<path d="M392.31 303.564L387.836 302.554V294.642L392.31 303.564Z" fill="#4BB3E7" fill-opacity="0.7"/>
<path d="M387.836 294.642L392.31 303.564V295.652L387.836 294.642Z" fill="#FE9090" fill-opacity="0.7"/>
<path d="M392.31 295.652V303.564L387.836 294.642L392.31 295.652Z" fill="#4BB3E7" fill-opacity="0.7"/>
<path d="M241.637 348.072L394.605 342.396V269.522M239.341 309.24L392.309 303.564V295.652L239.341 301.327M176.072 306.946L215.09 310.042M215.09 310.042L176.072 314.858M215.09 310.042L180.546 315.867M215.09 310.042L180.546 307.955" stroke="black" stroke-linecap="round"/>
<path d="M200.43 265.896V338.77L241.638 275.197L200.43 265.896Z" fill="#F0F0F0" fill-opacity="0.36"/>
<path d="M176.072 314.857V306.945L215.09 310.042L176.072 314.857Z" fill="#FE9090" fill-opacity="0.7"/>
<path d="M115.158 269.062L156.367 278.362M176.073 306.946V314.858M176.073 314.858L127.583 316.657M176.073 314.858L180.547 315.868" stroke="black" stroke-linecap="round"/>
<path d="M180.546 315.868L176.072 314.858L215.09 310.042L180.546 315.868Z" fill="#FE9090" fill-opacity="0.7"/>
<path d="M387.836 294.642V302.554L234.867 300.318L387.836 294.642Z" fill="#4BB3E7" fill-opacity="0.7"/>
<path d="M127.584 308.745L176.074 306.945L180.548 307.955" stroke="black" stroke-linecap="round"/>
<path d="M176.072 306.945L180.546 307.955L215.09 310.041L176.072 306.945Z" fill="#FE9090" fill-opacity="0.7"/>
<path d="M204.857 349.435L163.648 340.135V267.262L204.857 349.435Z" fill="#F0F0F0" fill-opacity="0.36"/>
<path d="M241.637 275.198L394.605 269.522" stroke="black" stroke-linecap="round"/>
<path d="M180.546 315.867L176.072 314.857V306.945L180.546 315.867Z" fill="#4BB3E7" fill-opacity="0.7"/>
<path d="M176.072 306.945V314.857L180.546 315.867L176.072 306.945ZM180.546 307.955V315.867L215.09 310.042L180.546 307.955Z" fill="#FE9090" fill-opacity="0.7"/>
<path d="M392.311 295.652L387.837 294.642L234.868 300.318L392.311 295.652ZM392.311 303.564L239.343 309.24L387.837 302.554L392.311 303.564ZM176.074 306.946V314.858L127.584 308.745L176.074 306.946ZM180.548 307.956V315.868L176.074 306.946L180.548 307.956Z" fill="#4BB3E7" fill-opacity="0.7"/>
<path d="M176.072 306.945L180.546 315.867V307.955L176.072 306.945Z" fill="#FE9090" fill-opacity="0.7"/>
<path d="M156.367 351.234L115.158 341.934L163.648 340.135L156.367 351.234ZM241.638 275.196L394.607 269.521L200.429 265.896L241.638 275.196Z" fill="#F0F0F0" fill-opacity="0.36"/>
<path d="M132.057 317.667L180.547 315.868V307.956" stroke="black" stroke-linecap="round"/>
<path d="M239.343 309.239L392.311 303.564V295.651L239.343 309.239ZM180.548 307.955L176.074 306.945L127.584 308.745L180.548 307.955Z" fill="#4BB3E7" fill-opacity="0.7"/>
<path d="M132.057 309.755L180.547 307.956" stroke="black" stroke-linecap="round"/>
<path d="M176.074 314.856L127.584 316.655V308.743L176.074 314.856ZM180.548 315.866L132.058 317.665L176.074 314.856L180.548 315.866Z" fill="#4BB3E7" fill-opacity="0.7"/>
<path d="M241.637 348.072L394.605 342.396V269.522L241.637 348.072Z" fill="#F0F0F0" fill-opacity="0.36"/>
<path d="M132.058 317.667L127.584 316.657L176.074 314.858L132.058 317.667ZM132.058 317.667L180.548 315.868V307.956L132.058 317.667Z" fill="#4BB3E7" fill-opacity="0.7"/>
<path d="M204.857 276.562L163.648 267.262L115.158 269.061L204.857 276.562Z" fill="#F0F0F0" fill-opacity="0.36"/>
<path d="M132.058 317.665L127.584 316.655V308.743L132.058 309.753" stroke="black" stroke-linecap="round"/>
<path d="M387.836 302.554L234.867 308.23V300.318L387.836 302.554Z" fill="#4BB3E7" fill-opacity="0.7"/>
<path d="M200.43 338.772L241.638 348.072V275.198L200.43 338.772Z" fill="#F0F0F0" fill-opacity="0.36"/>
<path d="M132.058 309.755L180.548 307.955L127.584 308.745L132.058 309.755ZM127.584 308.745V316.657L132.058 309.755L127.584 308.745ZM239.342 309.24L234.868 308.23L387.836 302.554L239.342 309.24ZM132.058 309.755V317.667L180.548 307.955L132.058 309.755Z" fill="#4BB3E7" fill-opacity="0.7"/>
<path d="M115.158 269.062V341.936L156.367 278.362L115.158 269.062Z" fill="#F0F0F0" fill-opacity="0.36"/>
<path d="M127.584 316.657L132.058 317.666V309.754L127.584 316.657ZM239.343 301.327L392.311 295.651L234.868 300.317L239.343 301.327Z" fill="#4BB3E7" fill-opacity="0.7"/>
<path d="M132.057 309.752V317.664" stroke="black" stroke-linecap="round"/>
<path d="M239.342 301.327V309.239L392.31 295.651L239.342 301.327Z" fill="#4BB3E7" fill-opacity="0.7"/>
<path d="M204.855 349.435L156.365 351.234L163.646 340.135L204.855 349.435ZM241.636 275.197V348.07L394.604 269.521L241.636 275.197ZM204.855 276.562V349.435L163.646 267.262L204.855 276.562Z" fill="#F0F0F0" fill-opacity="0.36"/>
<path d="M239.341 309.24L234.867 308.23V300.318L239.341 301.328" stroke="black" stroke-linecap="round"/>
<path d="M234.867 300.318V308.23L239.341 301.328L234.867 300.318ZM234.867 308.23L239.341 309.24V301.328L234.867 308.23Z" fill="#4BB3E7" fill-opacity="0.7"/>
<path d="M241.638 275.198V348.072M239.342 301.328V309.24" stroke="black" stroke-linecap="round"/>
<path d="M115.158 341.935L156.367 351.235V278.362L115.158 341.935ZM156.367 278.362L204.857 276.563L115.158 269.062L156.367 278.362Z" fill="#F0F0F0" fill-opacity="0.36"/>
<path d="M156.365 351.234L204.855 349.435V276.562" stroke="black" stroke-linecap="round"/>
<path d="M156.365 351.234L204.855 349.435V276.562L156.365 351.234Z" fill="#F0F0F0" fill-opacity="0.36"/>
<path d="M204.855 276.562L156.365 278.361V351.234" stroke="black" stroke-linecap="round"/>
<path d="M156.365 278.361V351.234L204.855 276.562L156.365 278.361Z" fill="#F0F0F0" fill-opacity="0.36"/>
</svg>
