<svg viewBox="-939 -461.5 1878 923" width="1878" height="923" style="background-color: none;" xmlns="http://www.w3.org/2000/svg"><path d="M656.0352323186204,-280.72616898125995L656.0352323186204,-118.01968071315811M656.0352323186204,-118.01968071315811L627.4033225281926,-112.56144112713457M656.0352323186204,-118.01968071315811L674.4916851769723,-109.55219106923946M627.4033225281926,-275.2679293952364L627.4033225281926,-112.56144112713457M627.4033225281926,-112.56144112713457L645.8597753865446,-104.09395148321593" style="fill:none;stroke:rgb(1,1,1);stroke-width:1;stroke-linecap:round"></path><path d="M645.8597753865446,-104.09395148321592L627.4033225281927,-112.56144112713456L656.0352323186204,-118.01968071315808zM674.4916851769722,-109.55219106923944L645.8597753865446,-104.09395148321592L656.0352323186204,-118.01968071315808zM674.4916851769722,-109.55219106923944L656.0352323186204,-118.01968071315808L656.0352323186204,-280.72616898125995z" style="fill:rgb(240,240,240); fill-opacity: 0.36"></path><path d="M645.8597753865446,-104.09395148321593L674.4916851769723,-109.55219106923946M674.4916851769723,-272.2586793373413L674.4916851769723,-109.55219106923946" style="fill:none;stroke:rgb(1,1,1);stroke-width:1;stroke-linecap:round"></path><path d="M656.0352323186204,-118.01968071315808L627.4033225281927,-112.56144112713456L627.4033225281927,-275.2679293952364z" style="fill:rgb(240,240,240); fill-opacity: 0.36"></path><path d="M592.9807274799306,-268.7057834426498L592.9807274799306,-105.99929517454794M592.9807274799306,-105.99929517454794L564.3488176895029,-100.54105558852442M592.9807274799306,-105.99929517454794L611.4371803382826,-97.53180553062928" style="fill:none;stroke:rgb(1,1,1);stroke-width:1;stroke-linecap:round"></path><path d="M656.0352323186204,-280.72616898125995L656.0352323186204,-118.01968071315808L627.4033225281927,-275.2679293952364z" style="fill:rgb(240,240,240); fill-opacity: 0.36"></path><path d="M645.8597753865446,-266.80043975131775L645.8597753865446,-104.09395148321593" style="fill:none;stroke:rgb(1,1,1);stroke-width:1;stroke-linecap:round"></path><path d="M645.8597753865446,-104.09395148321592L674.4916851769722,-109.55219106923944L674.4916851769722,-272.2586793373413z" style="fill:rgb(240,240,240); fill-opacity: 0.36"></path><path d="M656.0352323186204,-280.72616898125995L627.4033225281926,-275.2679293952364M656.0352323186204,-280.72616898125995L674.4916851769723,-272.2586793373413" style="fill:none;stroke:rgb(1,1,1);stroke-width:1;stroke-linecap:round"></path><path d="M674.4916851769722,-272.2586793373413L674.4916851769722,-109.55219106923944L656.0352323186204,-280.72616898125995zM627.4033225281927,-112.56144112713456L645.8597753865446,-104.09395148321592L645.8597753865446,-266.80043975131775z" style="fill:rgb(240,240,240); fill-opacity: 0.36"></path><path d="M564.3488176895029,-263.2475438566263L564.3488176895029,-100.54105558852442M564.3488176895029,-100.54105558852442L582.8052705478548,-92.07356594460576" style="fill:none;stroke:rgb(1,1,1);stroke-width:1;stroke-linecap:round"></path><path d="M582.8052705478548,-92.07356594460576L564.3488176895028,-100.5410555885244L592.9807274799305,-105.99929517454792zM627.4033225281927,-275.2679293952364L627.4033225281927,-112.56144112713456L645.8597753865446,-266.80043975131775z" style="fill:rgb(240,240,240); fill-opacity: 0.36"></path><path d="M616.4392965632023,-186.23539338715105L621.7150911083667,-177.0566832830511L621.7150911083667,-186.83734386077185zM618.4544708891735,-196.24597865770028L616.4392965632023,-186.23539338715105L621.7150911083667,-186.83734386077185z" style="fill:rgb(1,1,1)"></path><path d="M611.4371803382825,-97.53180553062928L582.8052705478548,-92.07356594460576L592.9807274799305,-105.99929517454792zM611.4371803382825,-97.53180553062928L592.9807274799305,-105.99929517454792L592.9807274799305,-268.70578344264976zM674.4916851769722,-272.2586793373413L656.0352323186204,-280.72616898125995L627.4033225281927,-275.2679293952364z" style="fill:rgb(240,240,240); fill-opacity: 0.36"></path><path d="M605.6512133824625,-183.77500907589888L621.7150911083667,-186.83734386077185M582.8052705478548,-92.07356594460576L611.4371803382826,-97.53180553062928M611.4371803382826,-260.23829379873115L611.4371803382826,-97.53180553062928" style="fill:none;stroke:rgb(1,1,1);stroke-width:1;stroke-linecap:round"></path><path d="M621.7150911083667,-177.0566832830511L626.9908856535311,-181.3945135043835L621.7150911083667,-186.83734386077185zM624.9757113275599,-193.25415047157335L618.4544708891735,-196.24597865770028L621.7150911083667,-186.83734386077185z" style="fill:rgb(1,1,1)"></path><path d="M592.9807274799305,-105.99929517454792L564.3488176895028,-100.5410555885244L564.3488176895028,-263.24754385662624z" style="fill:rgb(240,240,240); fill-opacity: 0.36"></path><path d="M627.4033225281926,-275.2679293952364L645.8597753865446,-266.80043975131775" style="fill:none;stroke:rgb(1,1,1);stroke-width:1;stroke-linecap:round"></path><path d="M624.9757113275599,-193.25415047157335L626.9908856535311,-181.3945135043835L633.1892894840126,-189.0247258499668zM626.9908856535311,-181.3945135043835L624.9757113275599,-193.25415047157335L621.7150911083667,-186.83734386077185z" style="fill:rgb(1,1,1)"></path><path d="M529.9262226412409,-272.9560512080809L529.9262226412409,-77.7082563318965M529.9262226412409,-77.7082563318965L501.29431285081307,-72.25001674587297M529.9262226412409,-77.7082563318965L548.3826754995928,-69.24076668797784" style="fill:none;stroke:rgb(1,1,1);stroke-width:1;stroke-linecap:round"></path><path d="M645.8597753865446,-266.80043975131775L645.8597753865446,-104.09395148321592L674.4916851769722,-272.2586793373413z" style="fill:rgb(240,240,240); fill-opacity: 0.36"></path><path d="M645.8597753865446,-266.80043975131775L674.4916851769723,-272.2586793373413" style="fill:none;stroke:rgb(1,1,1);stroke-width:1;stroke-linecap:round"></path><path d="M592.9807274799305,-268.70578344264976L592.9807274799305,-105.99929517454792L564.3488176895028,-263.24754385662624zM645.8597753865446,-266.80043975131775L674.4916851769722,-272.2586793373413L627.4033225281927,-275.2679293952364z" style="fill:rgb(240,240,240); fill-opacity: 0.36"></path><path d="M582.8052705478548,-254.78005421270763L582.8052705478548,-92.07356594460576" style="fill:none;stroke:rgb(1,1,1);stroke-width:1;stroke-linecap:round"></path><path d="M582.8052705478548,-92.07356594460576L611.4371803382825,-97.53180553062928L611.4371803382825,-260.2382937987311z" style="fill:rgb(240,240,240); fill-opacity: 0.36"></path><path d="M592.9807274799306,-268.7057834426498L564.3488176895029,-263.2475438566263M592.9807274799306,-268.7057834426498L611.4371803382826,-260.23829379873115M501.29431285081307,-267.4978116220574L501.29431285081307,-72.25001674587297M501.29431285081307,-72.25001674587297L519.7507657091651,-63.782527101954315" style="fill:none;stroke:rgb(1,1,1);stroke-width:1;stroke-linecap:round"></path><path d="M611.4371803382825,-260.2382937987311L611.4371803382825,-97.53180553062928L592.9807274799305,-268.70578344264976zM564.3488176895028,-100.5410555885244L582.8052705478548,-92.07356594460576L582.8052705478548,-254.78005421270757zM519.7507657091651,-63.78252710195431L501.294312850813,-72.25001674587295L529.9262226412409,-77.70825633189651zM548.3826754995929,-69.24076668797785L519.7507657091651,-63.78252710195431L529.9262226412409,-77.70825633189651zM564.3488176895028,-263.24754385662624L564.3488176895028,-100.5410555885244L582.8052705478548,-254.78005421270757z" style="fill:rgb(240,240,240); fill-opacity: 0.36"></path><path d="M519.7507657091651,-63.782527101954315L548.3826754995928,-69.24076668797784M548.3826754995928,-264.48856156416224L548.3826754995928,-69.24076668797784" style="fill:none;stroke:rgb(1,1,1);stroke-width:1;stroke-linecap:round"></path><path d="M553.3847917245126,-174.2150078485409L558.660586269677,-165.0362977444409L558.660586269677,-174.8169583221617zM555.3999660504838,-184.22559311909012L553.3847917245126,-174.2150078485409L558.660586269677,-174.8169583221617z" style="fill:rgb(1,1,1)"></path><path d="M548.3826754995929,-69.24076668797785L529.9262226412409,-77.70825633189651L529.9262226412409,-272.9560512080809zM611.4371803382825,-260.2382937987311L592.9807274799305,-268.70578344264976L564.3488176895028,-263.24754385662624z" style="fill:rgb(240,240,240); fill-opacity: 0.36"></path><path d="M542.5967085437727,-171.7546235372887L558.660586269677,-174.8169583221617" style="fill:none;stroke:rgb(1,1,1);stroke-width:1;stroke-linecap:round"></path><path d="M529.9262226412409,-77.70825633189651L501.294312850813,-72.25001674587295L501.294312850813,-267.4978116220574z" style="fill:rgb(240,240,240); fill-opacity: 0.36"></path><path d="M558.660586269677,-165.0362977444409L563.9363808148414,-169.37412796577334L558.660586269677,-174.8169583221617zM561.9212064888702,-181.2337649329632L555.3999660504838,-184.22559311909012L558.660586269677,-174.8169583221617z" style="fill:rgb(1,1,1)"></path><path d="M564.3488176895029,-263.2475438566263L582.8052705478548,-254.78005421270763" style="fill:none;stroke:rgb(1,1,1);stroke-width:1;stroke-linecap:round"></path><path d="M561.9212064888702,-181.2337649329632L563.9363808148414,-169.37412796577334L570.1347846453228,-177.00434031135666zM563.9363808148414,-169.37412796577334L561.9212064888702,-181.2337649329632L558.660586269677,-174.8169583221617z" style="fill:rgb(1,1,1)"></path><path d="M582.8052705478548,-254.78005421270757L582.8052705478548,-92.07356594460576L611.4371803382825,-260.2382937987311z" style="fill:rgb(240,240,240); fill-opacity: 0.36"></path><path d="M582.8052705478548,-254.78005421270763L611.4371803382826,-260.23829379873115M519.7507657091651,-259.0303219781387L519.7507657091651,-63.782527101954315" style="fill:none;stroke:rgb(1,1,1);stroke-width:1;stroke-linecap:round"></path><path d="M529.9262226412409,-272.9560512080809L529.9262226412409,-77.70825633189651L501.294312850813,-267.4978116220574zM582.8052705478548,-254.78005421270757L611.4371803382825,-260.2382937987311L564.3488176895028,-263.24754385662624zM519.7507657091651,-63.78252710195431L548.3826754995929,-69.24076668797785L548.3826754995929,-264.48856156416224zM501.294312850813,-72.25001674587295L519.7507657091651,-63.78252710195431L519.7507657091651,-259.0303219781387zM548.3826754995929,-264.48856156416224L548.3826754995929,-69.24076668797785L529.9262226412409,-272.9560512080809z" style="fill:rgb(240,240,240); fill-opacity: 0.36"></path><path d="M529.9262226412409,-272.9560512080809L501.29431285081307,-267.4978116220574M529.9262226412409,-272.9560512080809L548.3826754995928,-264.48856156416224" style="fill:none;stroke:rgb(1,1,1);stroke-width:1;stroke-linecap:round"></path><path d="M490.33028688582283,-162.1946223099307L495.6060814309872,-153.01591220583077L495.6060814309872,-162.79657278355154zM492.34546121179403,-172.20520758047996L490.33028688582283,-162.1946223099307L495.6060814309872,-162.79657278355154z" style="fill:rgb(1,1,1)"></path><path d="M501.294312850813,-267.4978116220574L501.294312850813,-72.25001674587295L519.7507657091651,-259.0303219781387z" style="fill:rgb(240,240,240); fill-opacity: 0.36"></path><path d="M479.542203705083,-159.73423799867857L495.6060814309872,-162.79657278355157" style="fill:none;stroke:rgb(1,1,1);stroke-width:1;stroke-linecap:round"></path><path d="M495.6060814309872,-153.01591220583077L500.88187597615166,-157.35374242716318L495.6060814309872,-162.79657278355154zM498.86670165018046,-169.21337939435304L492.34546121179403,-172.20520758047996L495.6060814309872,-162.79657278355154zM498.86670165018046,-169.21337939435304L500.88187597615166,-157.35374242716318L507.0802798066332,-164.98395477274653zM500.88187597615166,-157.35374242716318L498.86670165018046,-169.21337939435304L495.6060814309872,-162.79657278355154z" style="fill:rgb(1,1,1)"></path><path d="M548.3826754995929,-264.48856156416224L529.9262226412409,-272.9560512080809L501.294312850813,-267.4978116220574z" style="fill:rgb(240,240,240); fill-opacity: 0.36"></path><path d="M501.29431285081307,-267.4978116220574L519.7507657091651,-259.0303219781387" style="fill:none;stroke:rgb(1,1,1);stroke-width:1;stroke-linecap:round"></path><path d="M519.7507657091651,-259.0303219781387L519.7507657091651,-63.78252710195431L548.3826754995929,-264.48856156416224z" style="fill:rgb(240,240,240); fill-opacity: 0.36"></path><path d="M519.7507657091651,-259.0303219781387L548.3826754995928,-264.48856156416224M460.6745298667914,-158.81403599713386L460.6745298667914,-154.90177176604556M460.6745298667914,-154.90177176604556L288.88307112422456,-122.15233424990433M460.6745298667914,-154.90177176604556L462.89344927828967,-153.88377132567115" style="fill:none;stroke:rgb(1,1,1);stroke-width:1;stroke-linecap:round"></path><path d="M519.7507657091651,-259.0303219781387L548.3826754995929,-264.48856156416224L501.294312850813,-267.4978116220574z" style="fill:rgb(240,240,240); fill-opacity: 0.36"></path><path d="M460.6745298667914,-158.81403599713386L288.88307112422456,-126.06459848099266M460.6745298667914,-158.81403599713386L462.89344927828967,-157.79603555675948" style="fill:none;stroke:rgb(1,1,1);stroke-width:1;stroke-linecap:round"></path><path d="M462.89344927828967,-153.88377132567115L460.6745298667914,-154.90177176604553L460.6745298667914,-158.81403599713386zM462.89344927828967,-157.79603555675948L462.89344927828967,-153.88377132567115L460.6745298667914,-158.81403599713386z" style="fill:rgb(240,240,240); fill-opacity: 0.36"></path><path d="M291.1019905357228,-121.13433380952996L462.89344927828967,-153.88377132567115M462.89344927828967,-157.79603555675948L462.89344927828967,-153.88377132567115M291.1019905357228,-125.04659804061826L462.89344927828967,-157.79603555675948" style="fill:none;stroke:rgb(1,1,1);stroke-width:1;stroke-linecap:round"></path><path d="M460.6745298667914,-158.81403599713386L460.6745298667914,-154.90177176604553L288.88307112422456,-126.06459848099266zM462.89344927828967,-153.88377132567115L291.1019905357228,-121.13433380952996L460.6745298667914,-154.90177176604553zM462.89344927828967,-157.79603555675948L460.6745298667914,-158.81403599713386L288.88307112422456,-126.06459848099266zM291.1019905357228,-121.13433380952996L462.89344927828967,-153.88377132567115L462.89344927828967,-157.79603555675948zM460.6745298667914,-154.90177176604553L288.88307112422456,-122.15233424990433L288.88307112422456,-126.06459848099266zM291.1019905357228,-121.13433380952996L288.88307112422456,-122.15233424990433L460.6745298667914,-154.90177176604553zM291.1019905357228,-125.04659804061829L462.89344927828967,-157.79603555675948L288.88307112422456,-126.06459848099266zM291.1019905357228,-125.04659804061829L291.1019905357228,-121.13433380952996L462.89344927828967,-157.79603555675948z" style="fill:rgb(240,240,240); fill-opacity: 0.36"></path><path d="M288.88307112422456,-126.06459848099266L288.88307112422456,-122.15233424990433M288.88307112422456,-122.15233424990433L291.1019905357228,-121.13433380952996M288.88307112422456,-126.06459848099266L291.1019905357228,-125.04659804061826" style="fill:none;stroke:rgb(1,1,1);stroke-width:1;stroke-linecap:round"></path><path d="M288.88307112422456,-126.06459848099266L288.88307112422456,-122.15233424990433L291.1019905357228,-125.04659804061829z" style="fill:rgb(240,240,240); fill-opacity: 0.36"></path><path d="M260.72595185814276,-126.21131622535326L289.9925292310175,-123.59946584044454M260.72595185814276,-118.38678799636574L289.9925292310175,-123.59946584044454M265.1637912101708,-116.35078687290678L289.9925292310175,-123.59946584044454M265.1637912101708,-124.17531510189427L289.9925292310175,-123.59946584044454" style="fill:none;stroke:rgb(1,1,1);stroke-width:1;stroke-linecap:round"></path><path d="M288.88307112422456,-122.15233424990433L291.1019905357228,-121.13433380952996L291.1019905357228,-125.04659804061829z" style="fill:rgb(240,240,240); fill-opacity: 0.36"></path><path d="M291.1019905357228,-125.04659804061826L291.1019905357228,-121.13433380952996M246.34170974591467,-137.54171466264108L246.34170974591467,-105.00041551661033M246.34170974591467,-105.00041551661033L74.55025100334782,-72.25097800046913M246.34170974591467,-105.00041551661033L264.7981626042666,-96.5329258726917M246.34170974591467,-137.54171466264108L74.55025100334782,-104.79227714649986M246.34170974591467,-137.54171466264108L264.7981626042666,-129.07422501872244" style="fill:none;stroke:rgb(1,1,1);stroke-width:1;stroke-linecap:round"></path><path d="M264.7981626042667,-96.53292587269169L246.3417097459146,-105.00041551661032L246.3417097459146,-137.54171466264108z" style="fill:rgb(240,240,240); fill-opacity: 0.36"></path><path d="M260.725953899816,-118.38678817637576L260.725953899816,-126.21131663855239L289.992531066001,-123.59946619025634zM265.16379272281245,-116.350787295627L260.725953899816,-118.38678817637576L289.992531066001,-123.59946619025634zM260.725953899816,-126.21131663855239L265.16379272281245,-124.17531575780363L289.992531066001,-123.59946619025634zM265.16379272281245,-124.17531575780363L265.16379272281245,-116.350787295627L289.992531066001,-123.59946619025634z" style="fill:rgb(254,144,144); fill-opacity: 0.7"></path><path d="M264.7981626042667,-129.07422501872244L264.7981626042667,-96.53292587269169L246.3417097459146,-137.54171466264108z" style="fill:rgb(240,240,240); fill-opacity: 0.36"></path><path d="M93.00670386169979,-63.78348835655049L264.7981626042666,-96.5329258726917M264.7981626042666,-129.07422501872244L264.7981626042666,-96.5329258726917M260.7259541358433,-126.21131668354741L260.7259541358433,-118.38678822137078M260.7259541358433,-118.38678822137078L88.93449539327644,-85.63735070522958M260.7259541358433,-118.38678822137078L265.16379295883974,-116.35078734062205M260.72595185814276,-126.21131622535326L260.72595185814276,-118.38678799636574M260.72595185814276,-118.38678799636574L265.1637912101708,-116.35078687290678M260.7259541358433,-126.21131668354741L88.93449539327644,-93.4618791674062M260.7259541358433,-126.21131668354741L265.16379295883974,-124.17531580279866M260.72595185814276,-126.21131622535326L265.1637912101708,-124.17531510189427" style="fill:none;stroke:rgb(1,1,1);stroke-width:1;stroke-linecap:round"></path><path d="M265.16379295883974,-116.35078734062202L260.72595413584327,-118.38678822137078L260.72595413584327,-126.21131668354741z" style="fill:rgb(75,179,231); fill-opacity: 0.7"></path><path d="M260.725953899816,-126.21131663855239L260.725953899816,-118.38678817637576L265.16379272281245,-116.350787295627z" style="fill:rgb(254,144,144); fill-opacity: 0.7"></path><path d="M265.16379295883974,-124.17531580279866L265.16379295883974,-116.35078734062202L260.72595413584327,-126.21131668354741z" style="fill:rgb(75,179,231); fill-opacity: 0.7"></path><path d="M260.725953899816,-126.21131663855239L265.16379272281245,-116.350787295627L265.16379272281245,-124.17531575780363z" style="fill:rgb(254,144,144); fill-opacity: 0.7"></path><path d="M93.37233421627288,-83.60134982448083L265.16379295883974,-116.35078734062205M265.16379295883974,-124.17531580279866L265.16379295883974,-116.35078734062205M265.1637912101708,-116.35078687290678L265.1637912101708,-124.17531510189427M93.37233421627288,-91.42587828665745L265.16379295883974,-124.17531580279866M93.00670386169979,-96.32478750258123L264.7981626042666,-129.07422501872244" style="fill:none;stroke:rgb(1,1,1);stroke-width:1;stroke-linecap:round"></path><path d="M246.3417097459146,-137.54171466264108L246.3417097459146,-105.00041551661032L74.55025100334778,-104.79227714649986zM264.7981626042667,-96.53292587269169L93.00670386169976,-63.783488356550485L246.3417097459146,-105.00041551661032zM264.7981626042667,-129.07422501872244L246.3417097459146,-137.54171466264108L74.55025100334778,-104.79227714649986z" style="fill:rgb(240,240,240); fill-opacity: 0.36"></path><path d="M260.72595413584327,-126.21131668354741L260.72595413584327,-118.38678822137078L88.93449539327642,-93.4618791674062z" style="fill:rgb(75,179,231); fill-opacity: 0.7"></path><path d="M93.00670386169976,-63.783488356550485L264.7981626042667,-96.53292587269169L264.7981626042667,-129.07422501872244z" style="fill:rgb(240,240,240); fill-opacity: 0.36"></path><path d="M265.16379295883974,-116.35078734062202L93.37233421627282,-83.60134982448082L260.72595413584327,-118.38678822137078zM265.16379295883974,-124.17531580279866L260.72595413584327,-126.21131668354741L88.93449539327642,-93.4618791674062zM93.37233421627282,-83.60134982448082L265.16379295883974,-116.35078734062202L265.16379295883974,-124.17531580279866z" style="fill:rgb(75,179,231); fill-opacity: 0.7"></path><path d="M246.3417097459146,-105.00041551661032L74.55025100334778,-72.25097800046912L74.55025100334778,-104.79227714649986zM93.00670386169976,-63.783488356550485L74.55025100334778,-72.25097800046912L246.3417097459146,-105.00041551661032zM93.00670386169976,-96.32478750258123L264.7981626042667,-129.07422501872244L74.55025100334778,-104.79227714649986z" style="fill:rgb(240,240,240); fill-opacity: 0.36"></path><path d="M260.72595413584327,-118.38678822137078L88.93449539327642,-85.63735070522958L88.93449539327642,-93.4618791674062zM93.37233421627282,-83.60134982448082L88.93449539327642,-85.63735070522958L260.72595413584327,-118.38678822137078z" style="fill:rgb(75,179,231); fill-opacity: 0.7"></path><path d="M93.00670386169976,-96.32478750258123L93.00670386169976,-63.783488356550485L264.7981626042667,-129.07422501872244z" style="fill:rgb(240,240,240); fill-opacity: 0.36"></path><path d="M93.37233421627282,-91.42587828665744L265.16379295883974,-124.17531580279866L88.93449539327642,-93.4618791674062z" style="fill:rgb(75,179,231); fill-opacity: 0.7"></path><path d="M74.55025100334782,-104.79227714649986L74.55025100334782,-72.25097800046913M74.55025100334782,-72.25097800046913L93.00670386169979,-63.78348835655049" style="fill:none;stroke:rgb(1,1,1);stroke-width:1;stroke-linecap:round"></path><path d="M93.37233421627282,-91.42587828665744L93.37233421627282,-83.60134982448082L265.16379295883974,-124.17531580279866z" style="fill:rgb(75,179,231); fill-opacity: 0.7"></path><path d="M74.55025100334782,-104.79227714649986L93.00670386169979,-96.32478750258123" style="fill:none;stroke:rgb(1,1,1);stroke-width:1;stroke-linecap:round"></path><path d="M74.55025100334778,-104.79227714649986L74.55025100334778,-72.25097800046912L93.00670386169976,-96.32478750258123z" style="fill:rgb(240,240,240); fill-opacity: 0.36"></path><path d="M40.127656348464754,-98.23013126890497L40.127656348464754,-65.68883212287423M40.127656348464754,-65.68883212287423L-131.66380239410208,-32.93939460673303M40.127656348464754,-65.68883212287423L58.58410920681673,-57.221342478955606" style="fill:none;stroke:rgb(1,1,1);stroke-width:1;stroke-linecap:round"></path><path d="M74.55025100334778,-72.25097800046912L93.00670386169976,-63.783488356550485L93.00670386169976,-96.32478750258123z" style="fill:rgb(240,240,240); fill-opacity: 0.36"></path><path d="M48.63120800713342,-89.41450768222754L85.2727225455693,-91.04638897834981M48.63120800713342,-81.58997922005092L85.2727225455693,-91.04638897834981M53.06904669787192,-79.55397839997973L85.2727225455693,-91.04638897834981M53.06904669787192,-87.37850686215634L85.2727225455693,-91.04638897834981M93.00670386169979,-96.32478750258123L93.00670386169979,-63.78348835655049M88.93449539327644,-93.4618791674062L88.93449539327644,-85.63735070522958M88.93449539327644,-85.63735070522958L93.37233421627288,-83.60134982448083M88.93449539327644,-93.4618791674062L93.37233421627288,-91.42587828665745M40.127656348464754,-98.23013126890497L-131.66380239410208,-65.48069375276377M40.127656348464754,-98.23013126890497L58.58410920681673,-89.76264162498633" style="fill:none;stroke:rgb(1,1,1);stroke-width:1;stroke-linecap:round"></path><path d="M88.93449539327642,-93.4618791674062L88.93449539327642,-85.63735070522958L93.37233421627282,-91.42587828665744zM88.93449539327642,-85.63735070522958L93.37233421627282,-83.60134982448082L93.37233421627282,-91.42587828665744z" style="fill:rgb(75,179,231); fill-opacity: 0.7"></path><path d="M58.58410920681671,-57.22134247895559L40.12765634846475,-65.68883212287423L40.12765634846475,-98.23013126890497z" style="fill:rgb(240,240,240); fill-opacity: 0.36"></path><path d="M93.37233421627288,-91.42587828665745L93.37233421627288,-83.60134982448083" style="fill:none;stroke:rgb(1,1,1);stroke-width:1;stroke-linecap:round"></path><path d="M48.63119718165243,-81.58997704760687L48.63119718165243,-89.4145055097835L85.2727117200883,-91.04638680590575zM53.06903600464887,-79.55397616685812L48.63119718165243,-81.58997704760687L85.2727117200883,-91.04638680590575zM48.63119718165243,-89.4145055097835L53.06903600464887,-87.37850462903474L85.2727117200883,-91.04638680590575zM53.06903600464887,-87.37850462903474L53.06903600464887,-79.55397616685812L85.2727117200883,-91.04638680590575z" style="fill:rgb(254,144,144); fill-opacity: 0.7"></path><path d="M48.63120800713342,-89.41450768222754L48.63120800713342,-81.58997922005092M48.63120800713342,-81.58997922005092L53.06904669787192,-79.55397839997973M48.63119741767976,-89.41450555477851L48.63119741767976,-81.5899770926019M48.63119741767976,-81.5899770926019L-123.1602613248871,-48.84053957646069M48.63119741767976,-81.5899770926019L53.069036240676205,-79.55397621185314M48.63120800713342,-89.41450768222754L53.06904669787192,-87.37850686215634M48.63119741767976,-89.41450555477851L-123.1602613248871,-56.665068038637315M48.63119741767976,-89.41450555477851L53.069036240676205,-87.37850467402977" style="fill:none;stroke:rgb(1,1,1);stroke-width:1;stroke-linecap:round"></path><path d="M53.06903624067622,-79.55397621185315L48.63119741767977,-81.5899770926019L48.63119741767977,-89.41450555477853z" style="fill:rgb(75,179,231); fill-opacity: 0.7"></path><path d="M48.63119718165243,-89.4145055097835L48.63119718165243,-81.58997704760687L53.06903600464887,-79.55397616685812z" style="fill:rgb(254,144,144); fill-opacity: 0.7"></path><path d="M53.06903624067622,-87.37850467402977L53.06903624067622,-79.55397621185315L48.63119741767977,-89.41450555477853z" style="fill:rgb(75,179,231); fill-opacity: 0.7"></path><path d="M48.63119718165243,-89.4145055097835L53.06903600464887,-79.55397616685812L53.06903600464887,-87.37850462903474z" style="fill:rgb(254,144,144); fill-opacity: 0.7"></path><path d="M58.58410920681671,-89.76264162498633L58.58410920681671,-57.22134247895559L40.12765634846475,-98.23013126890497z" style="fill:rgb(240,240,240); fill-opacity: 0.36"></path><path d="M53.06904669787192,-79.55397839997973L53.06904669787192,-87.37850686215634M-118.72242250189066,-46.80453869571195L53.069036240676205,-79.55397621185314M53.069036240676205,-87.37850467402977L53.069036240676205,-79.55397621185314M-113.20734953575013,-24.471904962814396L58.58410920681673,-57.221342478955606M58.58410920681673,-89.76264162498633L58.58410920681673,-57.221342478955606M-118.72242250189066,-54.629067157888564L53.069036240676205,-87.37850467402977M-113.20734953575013,-57.01320410884513L58.58410920681673,-89.76264162498633" style="fill:none;stroke:rgb(1,1,1);stroke-width:1;stroke-linecap:round"></path><path d="M40.12765634846475,-98.23013126890497L40.12765634846475,-65.68883212287423L-131.6638023941021,-65.48069375276377zM58.58410920681671,-57.22134247895559L-113.20734953575014,-24.47190496281439L40.12765634846475,-65.68883212287423zM58.58410920681671,-89.76264162498633L40.12765634846475,-98.23013126890497L-131.6638023941021,-65.48069375276377z" style="fill:rgb(240,240,240); fill-opacity: 0.36"></path><path d="M48.63119741767977,-89.41450555477853L48.63119741767977,-81.5899770926019L-123.1602613248871,-56.665068038637315zM53.06903624067622,-79.55397621185315L-118.72242250189066,-46.804538695711955L48.63119741767977,-81.5899770926019zM53.06903624067622,-87.37850467402977L48.63119741767977,-89.41450555477853L-123.1602613248871,-56.665068038637315zM-118.72242250189066,-46.804538695711955L53.06903624067622,-79.55397621185315L53.06903624067622,-87.37850467402977z" style="fill:rgb(75,179,231); fill-opacity: 0.7"></path><path d="M-113.20734953575014,-24.47190496281439L58.58410920681671,-57.22134247895559L58.58410920681671,-89.76264162498633zM40.12765634846475,-65.68883212287423L-131.6638023941021,-32.939394606733025L-131.6638023941021,-65.48069375276377zM-113.20734953575014,-24.47190496281439L-131.6638023941021,-32.939394606733025L40.12765634846475,-65.68883212287423z" style="fill:rgb(240,240,240); fill-opacity: 0.36"></path><path d="M48.63119741767977,-81.5899770926019L-123.1602613248871,-48.840539576460706L-123.1602613248871,-56.665068038637315zM-118.72242250189066,-46.804538695711955L-123.1602613248871,-48.840539576460706L48.63119741767977,-81.5899770926019zM-118.72242250189066,-54.62906715788858L53.06903624067622,-87.37850467402977L-123.1602613248871,-56.665068038637315zM-118.72242250189066,-54.62906715788858L-118.72242250189066,-46.804538695711955L53.06903624067622,-87.37850467402977z" style="fill:rgb(75,179,231); fill-opacity: 0.7"></path><path d="M-113.20734953575014,-57.01320410884513L58.58410920681671,-89.76264162498633L-131.6638023941021,-65.48069375276377z" style="fill:rgb(240,240,240); fill-opacity: 0.36"></path><path d="M-178.28544917316415,-86.02388365325467L-178.28544917316415,-10.465325717836086M-178.28544917316415,-10.465325717836086L-350.07690791573106,22.284111798305123M-178.28544917316415,-10.465325717836086L-135.4308920664541,9.195576692866304" style="fill:none;stroke:rgb(1,1,1);stroke-width:1;stroke-linecap:round"></path><path d="M-113.20734953575014,-57.01320410884513L-113.20734953575014,-24.47190496281439L58.58410920681671,-89.76264162498633z" style="fill:rgb(240,240,240); fill-opacity: 0.36"></path><path d="M-131.66380239410208,-65.48069375276377L-131.66380239410208,-32.93939460673303M-131.66380239410208,-32.93939460673303L-113.20734953575013,-24.471904962814396M-176.58746385795456,-55.26677488013886L-129.49906682736994,-49.049304089078994M-176.58746385795456,-43.52998218687394L-129.49906682736994,-49.049304089078994M-169.9307056234599,-40.47598086575081L-129.49906682736994,-49.049304089078994M-169.9307056234599,-52.212773559015744L-129.49906682736994,-49.049304089078994M-176.5874613398462,-55.26677559885594L-176.5874613398462,-43.52998290559102M-176.5874613398462,-43.52998290559102L-348.378920082413,-10.780545389449811M-176.5874613398462,-43.52998290559102L-169.9307031053515,-40.475981584467895M-176.58746385795456,-55.26677488013886L-176.58746385795456,-43.52998218687394M-176.58746385795456,-43.52998218687394L-169.9307056234599,-40.47598086575081M-131.66380239410208,-65.48069375276377L-113.20734953575013,-57.01320410884513" style="fill:none;stroke:rgb(1,1,1);stroke-width:1;stroke-linecap:round"></path><path d="M-176.5874615758735,-43.529982860595986L-176.5874615758735,-55.26677555386092L-129.49906388725424,-49.04930456271629zM-169.93070334137886,-40.47598153947286L-176.5874615758735,-43.529982860595986L-129.49906388725424,-49.04930456271629z" style="fill:rgb(254,144,144); fill-opacity: 0.7"></path><path d="M-176.5874613398462,-55.26677559885594L-348.378920082413,-22.51733808271474M-176.5874613398462,-55.26677559885594L-169.9307031053515,-52.21277427773283M-176.58746385795456,-55.26677488013886L-169.9307056234599,-52.212773559015744" style="fill:none;stroke:rgb(1,1,1);stroke-width:1;stroke-linecap:round"></path><path d="M-169.9307031053515,-40.47598158446789L-176.58746133984616,-43.52998290559103L-176.58746133984616,-55.26677559885595z" style="fill:rgb(75,179,231); fill-opacity: 0.7"></path><path d="M-176.5874615758735,-55.26677555386092L-176.5874615758735,-43.529982860595986L-169.93070334137886,-40.47598153947286zM-176.5874615758735,-55.26677555386092L-169.93070334137886,-52.21277423273779L-129.49906388725424,-49.04930456271629z" style="fill:rgb(254,144,144); fill-opacity: 0.7"></path><path d="M-131.6638023941021,-65.48069375276377L-131.6638023941021,-32.939394606733025L-113.20734953575014,-57.01320410884513z" style="fill:rgb(240,240,240); fill-opacity: 0.36"></path><path d="M-169.93070334137886,-52.21277423273779L-169.93070334137886,-40.47598153947286L-129.49906388725424,-49.04930456271629z" style="fill:rgb(254,144,144); fill-opacity: 0.7"></path><path d="M-169.9307031053515,-52.21277427773282L-169.9307031053515,-40.47598158446789L-176.58746133984616,-55.26677559885595z" style="fill:rgb(75,179,231); fill-opacity: 0.7"></path><path d="M-176.5874615758735,-55.26677555386092L-169.93070334137886,-40.47598153947286L-169.93070334137886,-52.21277423273779z" style="fill:rgb(254,144,144); fill-opacity: 0.7"></path><path d="M-123.1602613248871,-56.665068038637315L-123.1602613248871,-48.84053957646069M-123.1602613248871,-48.84053957646069L-118.72242250189066,-46.80453869571195M-341.72216184791836,-7.726544068326689L-169.9307031053515,-40.475981584467895M-169.9307031053515,-52.21277427773283L-169.9307031053515,-40.475981584467895M-169.9307056234599,-40.47598086575081L-169.9307056234599,-52.212773559015744M-178.28544917316415,-86.02388365325467L-350.07690791573106,-53.27444613711347M-178.28544917316415,-86.02388365325467L-135.4308920664541,-66.3629812425523M-123.1602613248871,-56.665068038637315L-118.72242250189066,-54.629067157888564" style="fill:none;stroke:rgb(1,1,1);stroke-width:1;stroke-linecap:round"></path><path d="M-131.6638023941021,-32.939394606733025L-113.20734953575014,-24.47190496281439L-113.20734953575014,-57.01320410884513z" style="fill:rgb(240,240,240); fill-opacity: 0.36"></path><path d="M-123.1602613248871,-56.665068038637315L-123.1602613248871,-48.840539576460706L-118.72242250189066,-54.62906715788858z" style="fill:rgb(75,179,231); fill-opacity: 0.7"></path><path d="M-341.72216184791836,-19.463336761591616L-169.9307031053515,-52.21277427773283" style="fill:none;stroke:rgb(1,1,1);stroke-width:1;stroke-linecap:round"></path><path d="M-123.1602613248871,-48.840539576460706L-118.72242250189066,-46.804538695711955L-118.72242250189066,-54.62906715788858z" style="fill:rgb(75,179,231); fill-opacity: 0.7"></path><path d="M-118.72242250189066,-54.629067157888564L-118.72242250189066,-46.80453869571195" style="fill:none;stroke:rgb(1,1,1);stroke-width:1;stroke-linecap:round"></path><path d="M-135.4308920664541,9.195576692866306L-178.28544917316415,-10.465325717836082L-178.28544917316415,-86.02388365325467z" style="fill:rgb(240,240,240); fill-opacity: 0.36"></path><path d="M-113.20734953575013,-57.01320410884513L-113.20734953575013,-24.471904962814396" style="fill:none;stroke:rgb(1,1,1);stroke-width:1;stroke-linecap:round"></path><path d="M-176.58746133984616,-55.26677559885595L-176.58746133984616,-43.52998290559103L-348.378920082413,-22.517338082714744z" style="fill:rgb(75,179,231); fill-opacity: 0.7"></path><path d="M-178.28544917316415,-86.02388365325467L-178.28544917316415,-10.465325717836082L-350.07690791573106,-53.27444613711348z" style="fill:rgb(240,240,240); fill-opacity: 0.36"></path><path d="M-169.9307031053515,-40.47598158446789L-341.72216184791836,-7.726544068326691L-176.58746133984616,-43.52998290559103zM-169.9307031053515,-52.21277427773282L-176.58746133984616,-55.26677559885595L-348.378920082413,-22.517338082714744z" style="fill:rgb(75,179,231); fill-opacity: 0.7"></path><path d="M-135.4308920664541,-66.36298124255228L-135.4308920664541,9.195576692866306L-178.28544917316415,-86.02388365325467z" style="fill:rgb(240,240,240); fill-opacity: 0.36"></path><path d="M-341.72216184791836,-7.726544068326691L-169.9307031053515,-40.47598158446789L-169.9307031053515,-52.21277427773282z" style="fill:rgb(75,179,231); fill-opacity: 0.7"></path><path d="M-307.22235080902095,41.9450142090075L-135.4308920664541,9.195576692866304M-135.4308920664541,-66.3629812425523L-135.4308920664541,9.195576692866304" style="fill:none;stroke:rgb(1,1,1);stroke-width:1;stroke-linecap:round"></path><path d="M-135.4308920664541,9.195576692866306L-307.22235080902095,41.9450142090075L-178.28544917316415,-10.465325717836082zM-178.28544917316415,-10.465325717836082L-350.07690791573106,22.284111798305123L-350.07690791573106,-53.27444613711348zM-135.4308920664541,-66.36298124255228L-178.28544917316415,-86.02388365325467L-350.07690791573106,-53.27444613711348z" style="fill:rgb(240,240,240); fill-opacity: 0.36"></path><path d="M-176.58746133984616,-43.52998290559103L-348.378920082413,-10.780545389449816L-348.378920082413,-22.517338082714744zM-341.72216184791836,-7.726544068326691L-348.378920082413,-10.780545389449816L-176.58746133984616,-43.52998290559103z" style="fill:rgb(75,179,231); fill-opacity: 0.7"></path><path d="M-307.22235080902095,-33.61354372641109L-135.4308920664541,-66.3629812425523" style="fill:none;stroke:rgb(1,1,1);stroke-width:1;stroke-linecap:round"></path><path d="M-307.22235080902095,41.9450142090075L-350.07690791573106,22.284111798305123L-178.28544917316415,-10.465325717836082z" style="fill:rgb(240,240,240); fill-opacity: 0.36"></path><path d="M-341.72216184791836,-19.463336761591616L-169.9307031053515,-52.21277427773282L-348.378920082413,-22.517338082714744zM-341.72216184791836,-19.463336761591616L-341.72216184791836,-7.726544068326691L-169.9307031053515,-52.21277427773282z" style="fill:rgb(75,179,231); fill-opacity: 0.7"></path><path d="M-350.07690791573106,-53.27444613711347L-350.07690791573106,22.284111798305123M-350.07690791573106,22.284111798305123L-307.22235080902095,41.9450142090075" style="fill:none;stroke:rgb(1,1,1);stroke-width:1;stroke-linecap:round"></path><path d="M-307.22235080902095,41.9450142090075L-135.4308920664541,9.195576692866306L-135.4308920664541,-66.36298124255228z" style="fill:rgb(240,240,240); fill-opacity: 0.36"></path><path d="M-348.378920082413,-22.51733808271474L-348.378920082413,-10.780545389449811M-348.378920082413,-10.780545389449811L-341.72216184791836,-7.726544068326689M-348.378920082413,-22.51733808271474L-341.72216184791836,-19.463336761591616" style="fill:none;stroke:rgb(1,1,1);stroke-width:1;stroke-linecap:round"></path><path d="M-348.378920082413,-22.517338082714744L-348.378920082413,-10.780545389449816L-341.72216184791836,-19.463336761591616zM-348.378920082413,-10.780545389449816L-341.72216184791836,-7.726544068326691L-341.72216184791836,-19.463336761591616z" style="fill:rgb(75,179,231); fill-opacity: 0.7"></path><path d="M-384.4995058927464,-46.7122996262044L-384.4995058927464,28.84625830921419M-384.4995058927464,28.84625830921419L-527.6590482792965,56.137454987701844M-384.4995058927464,28.84625830921419L-341.64494878603637,48.507160719916584M-341.72216184791836,-19.463336761591616L-341.72216184791836,-7.726544068326689M-350.07690791573106,-53.27444613711347L-307.22235080902095,-33.61354372641109" style="fill:none;stroke:rgb(1,1,1);stroke-width:1;stroke-linecap:round"></path><path d="M-307.22235080902095,-33.61354372641109L-135.4308920664541,-66.36298124255228L-350.07690791573106,-53.27444613711348zM-350.07690791573106,-53.27444613711348L-350.07690791573106,22.284111798305123L-307.22235080902095,-33.61354372641109zM-307.22235080902095,-33.61354372641109L-307.22235080902095,41.9450142090075L-135.4308920664541,-66.36298124255228z" style="fill:rgb(240,240,240); fill-opacity: 0.36"></path><path d="M-384.4995058927464,-46.7122996262044L-527.6590482792965,-19.42110294771675M-384.4995058927464,-46.7122996262044L-341.64494878603637,-27.051397215502014" style="fill:none;stroke:rgb(1,1,1);stroke-width:1;stroke-linecap:round"></path><path d="M-350.07690791573106,22.284111798305123L-307.22235080902095,41.9450142090075L-307.22235080902095,-33.61354372641109zM-341.64494878603637,48.50716071991658L-384.4995058927464,28.846258309214196L-384.4995058927464,-46.712299626204405z" style="fill:rgb(240,240,240); fill-opacity: 0.36"></path><path d="M-360.8921726305072,-14.630980591825809L-324.2506579598134,-16.262862760027M-360.8921726305072,-6.806453062405668L-324.2506579598134,-16.262862760027M-356.4543339397686,-4.770452242334472L-324.2506579598134,-16.262862760027M-356.4543339397686,-12.59497977175461L-324.2506579598134,-16.262862760027M-307.22235080902095,-33.61354372641109L-307.22235080902095,41.9450142090075" style="fill:none;stroke:rgb(1,1,1);stroke-width:1;stroke-linecap:round"></path><path d="M-360.8921726487632,-6.806452808909135L-360.8921726487632,-14.630981271085753L-324.2506581103274,-16.262862567208025z" style="fill:rgb(254,144,144); fill-opacity: 0.7"></path><path d="M-384.4995058927464,-46.712299626204405L-384.4995058927464,28.846258309214196L-527.6590482792965,-19.421102947716747z" style="fill:rgb(240,240,240); fill-opacity: 0.36"></path><path d="M-356.4543338257668,-4.770451928160385L-360.8921726487632,-6.806452808909135L-324.2506581103274,-16.262862567208025zM-360.8921726487632,-14.630981271085753L-356.4543338257668,-12.594980390337003L-324.2506581103274,-16.262862567208025zM-356.4543338257668,-12.594980390337003L-356.4543338257668,-4.770451928160385L-324.2506581103274,-16.262862567208025z" style="fill:rgb(254,144,144); fill-opacity: 0.7"></path><path d="M-360.8921726305072,-14.630980591825809L-360.8921726305072,-6.806453062405668M-360.8921726305072,-6.806453062405668L-356.4543339397686,-4.770452242334472M-360.8921757348683,-14.630980682766607L-360.8921757348683,-6.806452220589988M-360.8921757348683,-6.806452220589988L-504.0517181214184,20.484744457897666M-360.8921757348683,-6.806452220589988L-356.45433691187185,-4.770451339841238M-360.8921726305072,-14.630980591825809L-356.4543339397686,-12.59497977175461M-360.8921757348683,-14.630980682766607L-504.0517181214184,12.660215995721051M-360.8921757348683,-14.630980682766607L-356.45433691187185,-12.594979802017855" style="fill:none;stroke:rgb(1,1,1);stroke-width:1;stroke-linecap:round"></path><path d="M-360.8921726487632,-14.630981271085753L-360.8921726487632,-6.806452808909135L-356.4543338257668,-4.770451928160385z" style="fill:rgb(254,144,144); fill-opacity: 0.7"></path><path d="M-356.4543369118719,-4.770451339841237L-360.89217573486826,-6.806452220589987L-360.89217573486826,-14.630980682766607z" style="fill:rgb(75,179,231); fill-opacity: 0.7"></path><path d="M-360.8921726487632,-14.630981271085753L-356.4543338257668,-4.770451928160385L-356.4543338257668,-12.594980390337003z" style="fill:rgb(254,144,144); fill-opacity: 0.7"></path><path d="M-356.4543369118719,-12.594979802017857L-356.4543369118719,-4.770451339841237L-360.89217573486826,-14.630980682766607z" style="fill:rgb(75,179,231); fill-opacity: 0.7"></path><path d="M-356.4543339397686,-4.770452242334472L-356.4543339397686,-12.59497977175461M-499.61387929842186,22.520745338646417L-356.45433691187185,-4.770451339841238M-356.45433691187185,-12.594979802017855L-356.45433691187185,-4.770451339841238" style="fill:none;stroke:rgb(1,1,1);stroke-width:1;stroke-linecap:round"></path><path d="M-341.64494878603637,-27.051397215502014L-341.64494878603637,48.50716071991658L-384.4995058927464,-46.712299626204405z" style="fill:rgb(240,240,240); fill-opacity: 0.36"></path><path d="M-499.61387929842186,14.6962168764698L-356.45433691187185,-12.594979802017855M-484.8044911725864,75.79835739840422L-341.64494878603637,48.507160719916584M-341.64494878603637,-27.051397215502014L-341.64494878603637,48.507160719916584" style="fill:none;stroke:rgb(1,1,1);stroke-width:1;stroke-linecap:round"></path><path d="M-384.4995058927464,28.846258309214196L-527.6590482792965,56.137454987701844L-527.6590482792965,-19.421102947716747zM-341.64494878603637,48.50716071991658L-484.8044911725865,75.79835739840424L-384.4995058927464,28.846258309214196zM-341.64494878603637,-27.051397215502014L-384.4995058927464,-46.712299626204405L-527.6590482792965,-19.421102947716747zM-484.8044911725865,75.79835739840424L-527.6590482792965,56.137454987701844L-384.4995058927464,28.846258309214196z" style="fill:rgb(240,240,240); fill-opacity: 0.36"></path><path d="M-360.89217573486826,-14.630980682766607L-360.89217573486826,-6.806452220589987L-504.0517181214184,12.66021599572105zM-356.4543369118719,-4.770451339841237L-499.613879298422,22.52074533864642L-360.89217573486826,-6.806452220589987zM-356.4543369118719,-12.594979802017857L-360.89217573486826,-14.630980682766607L-504.0517181214184,12.66021599572105zM-499.613879298422,22.52074533864642L-356.4543369118719,-4.770451339841237L-356.4543369118719,-12.594979802017857z" style="fill:rgb(75,179,231); fill-opacity: 0.7"></path><path d="M-484.8044911725864,0.23979946298564137L-341.64494878603637,-27.051397215502014M-527.6590482792965,-19.42110294771675L-527.6590482792965,56.137454987701844M-527.6590482792965,56.137454987701844L-484.8044911725864,75.79835739840422M-571.3098760076201,-33.36335019846817L-571.3098760076201,74.73650688298116M-571.3098760076201,74.73650688298116L-714.4694183941702,102.02770356146881M-571.3098760076201,74.73650688298116L-509.9988660425581,102.86489893760216" style="fill:none;stroke:rgb(1,1,1);stroke-width:1;stroke-linecap:round"></path><path d="M-484.8044911725865,75.79835739840424L-341.64494878603637,48.50716071991658L-341.64494878603637,-27.051397215502014z" style="fill:rgb(240,240,240); fill-opacity: 0.36"></path><path d="M-360.89217573486826,-6.806452220589987L-504.0517181214184,20.48474445789767L-504.0517181214184,12.66021599572105zM-499.613879298422,22.52074533864642L-504.0517181214184,20.48474445789767L-360.89217573486826,-6.806452220589987z" style="fill:rgb(75,179,231); fill-opacity: 0.7"></path><path d="M-527.6590482792965,-19.42110294771675L-484.8044911725864,0.23979946298564137" style="fill:none;stroke:rgb(1,1,1);stroke-width:1;stroke-linecap:round"></path><path d="M-499.613879298422,14.6962168764698L-356.4543369118719,-12.594979802017857L-504.0517181214184,12.66021599572105zM-499.613879298422,14.6962168764698L-499.613879298422,22.52074533864642L-356.4543369118719,-12.594979802017857z" style="fill:rgb(75,179,231); fill-opacity: 0.7"></path><path d="M-571.3098760076201,-33.36335019846817L-714.4694183941702,-6.072153519980518M-571.3098760076201,-33.36335019846817L-509.9988660425581,-5.234958143847154" style="fill:none;stroke:rgb(1,1,1);stroke-width:1;stroke-linecap:round"></path><path d="M-484.8044911725865,0.23979946298564137L-341.64494878603637,-27.051397215502014L-527.6590482792965,-19.421102947716747zM-527.6590482792965,-19.421102947716747L-527.6590482792965,56.137454987701844L-484.8044911725865,0.23979946298564137zM-509.9988660425581,102.86489893760216L-571.3098760076202,74.73650688298116L-571.3098760076202,-33.36335019846817z" style="fill:rgb(240,240,240); fill-opacity: 0.36"></path><path d="M-504.0517181214184,12.660215995721051L-504.0517181214184,20.484744457897666M-504.0517181214184,20.484744457897666L-499.61387929842186,22.520745338646417" style="fill:none;stroke:rgb(1,1,1);stroke-width:1;stroke-linecap:round"></path><path d="M-484.8044911725865,0.23979946298564137L-484.8044911725865,75.79835739840424L-341.64494878603637,-27.051397215502014zM-527.6590482792965,56.137454987701844L-484.8044911725865,75.79835739840424L-484.8044911725865,0.23979946298564137z" style="fill:rgb(240,240,240); fill-opacity: 0.36"></path><path d="M-504.0517181214184,12.660215995721051L-499.61387929842186,14.6962168764698" style="fill:none;stroke:rgb(1,1,1);stroke-width:1;stroke-linecap:round"></path><path d="M-504.0517181214184,12.66021599572105L-504.0517181214184,20.48474445789767L-499.613879298422,14.6962168764698z" style="fill:rgb(75,179,231); fill-opacity: 0.7"></path><path d="M-571.3098760076202,-33.36335019846817L-571.3098760076202,74.73650688298116L-714.4694183941702,-6.072153519980522z" style="fill:rgb(240,240,240); fill-opacity: 0.36"></path><path d="M-504.0517181214184,20.48474445789767L-499.613879298422,22.52074533864642L-499.613879298422,14.6962168764698z" style="fill:rgb(75,179,231); fill-opacity: 0.7"></path><path d="M-499.61387929842186,14.6962168764698L-499.61387929842186,22.520745338646417M-484.8044911725864,0.23979946298564137L-484.8044911725864,75.79835739840422M-520.0717785446525,29.67269029137191L-489.5187227269574,29.8083599019107M-520.0717785446525,41.4094825182586L-489.5187227269574,29.8083599019107M-513.415020310158,44.46348383938172L-489.5187227269574,29.8083599019107M-513.415020310158,32.72669161249503L-489.5187227269574,29.8083599019107" style="fill:none;stroke:rgb(1,1,1);stroke-width:1;stroke-linecap:round"></path><path d="M-571.3098760076202,74.73650688298116L-714.4694183941702,102.02770356146881L-714.4694183941702,-6.072153519980522zM-509.9988660425581,-5.234958143847157L-509.9988660425581,102.86489893760216L-571.3098760076202,-33.36335019846817z" style="fill:rgb(240,240,240); fill-opacity: 0.36"></path><path d="M-520.071781854403,41.40948294416162L-520.071781854403,29.67269025089669L-489.518725361246,29.808360424619668z" style="fill:rgb(254,144,144); fill-opacity: 0.7"></path><path d="M-714.4694183941702,-6.072153519980518L-714.4694183941702,102.02770356146881M-714.4694183941702,102.02770356146881L-653.1584084291082,130.15609561608983" style="fill:none;stroke:rgb(1,1,1);stroke-width:1;stroke-linecap:round"></path><path d="M-513.4150236199083,44.46348426528474L-520.071781854403,41.40948294416162L-489.518725361246,29.808360424619668z" style="fill:rgb(254,144,144); fill-opacity: 0.7"></path><path d="M-653.1584084291084,130.1560956160898L-714.4694183941702,102.02770356146881L-571.3098760076202,74.73650688298116zM-509.9988660425581,102.86489893760216L-653.1584084291084,130.1560956160898L-571.3098760076202,74.73650688298116z" style="fill:rgb(240,240,240); fill-opacity: 0.36"></path><path d="M-520.071781854403,29.67269025089669L-513.4150236199083,32.72669157201981L-489.518725361246,29.808360424619668z" style="fill:rgb(254,144,144); fill-opacity: 0.7"></path><path d="M-653.1584084291082,130.15609561608983L-509.9988660425581,102.86489893760216M-509.9988660425581,-5.234958143847154L-509.9988660425581,102.86489893760216" style="fill:none;stroke:rgb(1,1,1);stroke-width:1;stroke-linecap:round"></path><path d="M-513.4150236199083,32.72669157201981L-513.4150236199083,44.46348426528474L-489.518725361246,29.808360424619668z" style="fill:rgb(254,144,144); fill-opacity: 0.7"></path><path d="M-509.9988660425581,-5.234958143847157L-571.3098760076202,-33.36335019846817L-714.4694183941702,-6.072153519980522z" style="fill:rgb(240,240,240); fill-opacity: 0.36"></path><path d="M-520.0717785446525,29.67269029137191L-520.0717785446525,41.4094825182586M-520.0717785446525,41.4094825182586L-513.415020310158,44.46348383938172M-520.0717849405079,29.67269083921583L-520.0717849405079,41.409483532480756M-520.0717849405079,41.409483532480756L-663.2313273270579,68.70068021096841M-520.0717849405079,41.409483532480756L-513.4150267060132,44.46348485360389M-520.0717785446525,29.67269029137191L-513.415020310158,32.72669161249503M-520.0717849405079,29.67269083921583L-663.2313273270579,56.96388751770348M-520.0717849405079,29.67269083921583L-513.4150267060132,32.726692160338956" style="fill:none;stroke:rgb(1,1,1);stroke-width:1;stroke-linecap:round"></path><path d="M-520.071781854403,29.67269025089669L-520.071781854403,41.40948294416162L-513.4150236199083,44.46348426528474z" style="fill:rgb(254,144,144); fill-opacity: 0.7"></path><path d="M-513.4150267060134,44.46348485360389L-520.071784940508,41.40948353248076L-520.071784940508,29.672690839215832z" style="fill:rgb(75,179,231); fill-opacity: 0.7"></path><path d="M-520.071781854403,29.67269025089669L-513.4150236199083,44.46348426528474L-513.4150236199083,32.72669157201981z" style="fill:rgb(254,144,144); fill-opacity: 0.7"></path><path d="M-513.4150267060134,32.726692160338956L-513.4150267060134,44.46348485360389L-520.071784940508,29.672690839215832z" style="fill:rgb(75,179,231); fill-opacity: 0.7"></path><path d="M-513.415020310158,44.46348383938172L-513.415020310158,32.72669161249503M-656.5745690925633,71.75468153209154L-513.4150267060132,44.46348485360389M-513.4150267060132,32.726692160338956L-513.4150267060132,44.46348485360389M-656.5745690925633,60.01788883882661L-513.4150267060132,32.726692160338956M-748.8920161975686,0.4899929578310718L-748.8920161975686,108.58985003928039M-748.8920161975686,108.58985003928039L-794.2725202340184,117.24095523549268M-748.8920161975686,108.58985003928039L-687.5810062325065,136.7182420939014M-714.4694183941702,-6.072153519980518L-653.1584084291082,22.0562385346405M-653.1584084291082,22.0562385346405L-509.9988660425581,-5.234958143847154" style="fill:none;stroke:rgb(1,1,1);stroke-width:1;stroke-linecap:round"></path><path d="M-520.071784940508,29.672690839215832L-520.071784940508,41.40948353248076L-663.2313273270579,56.96388751770348zM-513.4150267060134,44.46348485360389L-656.5745690925634,71.75468153209155L-520.071784940508,41.40948353248076zM-513.4150267060134,32.726692160338956L-520.071784940508,29.672690839215832L-663.2313273270579,56.96388751770348z" style="fill:rgb(75,179,231); fill-opacity: 0.7"></path><path d="M-653.1584084291084,130.1560956160898L-509.9988660425581,102.86489893760216L-509.9988660425581,-5.234958143847157z" style="fill:rgb(240,240,240); fill-opacity: 0.36"></path><path d="M-656.5745690925634,71.75468153209155L-513.4150267060134,44.46348485360389L-513.4150267060134,32.726692160338956z" style="fill:rgb(75,179,231); fill-opacity: 0.7"></path><path d="M-730.4057557972975,63.67680289339382L-692.6547815531126,64.51005404959746M-730.4057557972975,75.41359570325329L-692.6547815531126,64.51005404959746M-723.7489975628029,78.46759702437643L-692.6547815531126,64.51005404959746M-723.7489975628029,66.73080421451695L-692.6547815531126,64.51005404959746M-794.2725202340184,9.14109815404335L-794.2725202340184,117.24095523549268M-794.2725202340184,117.24095523549268L-732.9615102689563,145.3693472901137" style="fill:none;stroke:rgb(1,1,1);stroke-width:1;stroke-linecap:round"></path><path d="M-748.8920161975685,108.5898500392804L-794.2725202340183,117.24095523549265L-794.2725202340183,9.141098154043348zM-714.4694183941702,-6.072153519980522L-714.4694183941702,102.02770356146881L-653.1584084291084,22.056238534640492zM-748.8920161975685,0.4899929578310814L-748.8920161975685,108.5898500392804L-794.2725202340183,9.141098154043348z" style="fill:rgb(240,240,240); fill-opacity: 0.36"></path><path d="M-748.8920161975686,0.4899929578310718L-794.2725202340184,9.14109815404335M-748.8920161975686,0.4899929578310718L-687.5810062325065,28.618385012452094" style="fill:none;stroke:rgb(1,1,1);stroke-width:1;stroke-linecap:round"></path><path d="M-730.4057515193055,75.41359495387732L-730.4057515193055,63.67680226061239L-692.6547772751205,64.51005330022146zM-723.7489932848107,78.46759627500045L-730.4057515193055,75.41359495387732L-692.6547772751205,64.51005330022146z" style="fill:rgb(254,144,144); fill-opacity: 0.7"></path><path d="M-730.405751109661,63.67680218251987L-730.405751109661,75.4135948757848M-730.405751109661,75.4135948757848L-775.7862551461108,84.06470007199708M-730.405751109661,75.4135948757848L-723.7489928751662,78.46759619690792M-730.4057557972975,63.67680289339382L-730.4057557972975,75.41359570325329M-730.4057557972975,75.41359570325329L-723.7489975628029,78.46759702437643" style="fill:none;stroke:rgb(1,1,1);stroke-width:1;stroke-linecap:round"></path><path d="M-730.4057515193055,63.67680226061239L-723.7489932848107,66.73080358173551L-692.6547772751205,64.51005330022146z" style="fill:rgb(254,144,144); fill-opacity: 0.7"></path><path d="M-687.5810062325066,136.7182420939014L-748.8920161975685,108.5898500392804L-748.8920161975685,0.4899929578310814z" style="fill:rgb(240,240,240); fill-opacity: 0.36"></path><path d="M-723.7489932848107,66.73080358173551L-723.7489932848107,78.46759627500045L-692.6547772751205,64.51005330022146z" style="fill:rgb(254,144,144); fill-opacity: 0.7"></path><path d="M-653.1584084291084,22.056238534640492L-509.9988660425581,-5.234958143847157L-714.4694183941702,-6.072153519980522z" style="fill:rgb(240,240,240); fill-opacity: 0.36"></path><path d="M-730.405751109661,63.67680218251987L-775.7862551461108,72.32790737873215M-730.405751109661,63.67680218251987L-723.7489928751662,66.73080350364299M-730.4057557972975,63.67680289339382L-723.7489975628029,66.73080421451695" style="fill:none;stroke:rgb(1,1,1);stroke-width:1;stroke-linecap:round"></path><path d="M-520.071784940508,41.40948353248076L-663.2313273270579,68.70068021096841L-663.2313273270579,56.96388751770348zM-723.7489928751663,78.46759619690793L-730.405751109661,75.41359487578481L-730.405751109661,63.676802182519886z" style="fill:rgb(75,179,231); fill-opacity: 0.7"></path><path d="M-730.4057515193055,63.67680226061239L-730.4057515193055,75.41359495387732L-723.7489932848107,78.46759627500045z" style="fill:rgb(254,144,144); fill-opacity: 0.7"></path><path d="M-656.5745690925634,71.75468153209155L-663.2313273270579,68.70068021096841L-520.071784940508,41.40948353248076z" style="fill:rgb(75,179,231); fill-opacity: 0.7"></path><path d="M-732.9615102689564,145.36934729011367L-794.2725202340183,117.24095523549265L-748.8920161975685,108.5898500392804z" style="fill:rgb(240,240,240); fill-opacity: 0.36"></path><path d="M-723.7489928751663,66.730803503643L-723.7489928751663,78.46759619690793L-730.405751109661,63.676802182519886z" style="fill:rgb(75,179,231); fill-opacity: 0.7"></path><path d="M-730.4057515193055,63.67680226061239L-723.7489932848107,78.46759627500045L-723.7489932848107,66.73080358173551z" style="fill:rgb(254,144,144); fill-opacity: 0.7"></path><path d="M-769.129496911616,87.1187013931202L-723.7489928751662,78.46759619690792M-723.7489928751662,66.73080350364299L-723.7489928751662,78.46759619690792M-723.7489975628029,78.46759702437643L-723.7489975628029,66.73080421451695" style="fill:none;stroke:rgb(1,1,1);stroke-width:1;stroke-linecap:round"></path><path d="M-714.4694183941702,102.02770356146881L-653.1584084291084,130.1560956160898L-653.1584084291084,22.056238534640492z" style="fill:rgb(240,240,240); fill-opacity: 0.36"></path><path d="M-730.405751109661,63.676802182519886L-730.405751109661,75.41359487578481L-775.7862551461108,72.32790737873215zM-656.5745690925634,60.01788883882662L-513.4150267060134,32.726692160338956L-663.2313273270579,56.96388751770348z" style="fill:rgb(75,179,231); fill-opacity: 0.7"></path><path d="M-769.129496911616,75.38190869985527L-723.7489928751662,66.73080350364299" style="fill:none;stroke:rgb(1,1,1);stroke-width:1;stroke-linecap:round"></path><path d="M-656.5745690925634,60.01788883882662L-656.5745690925634,71.75468153209155L-513.4150267060134,32.726692160338956zM-723.7489928751663,78.46759619690793L-769.1294969116161,87.1187013931202L-730.405751109661,75.41359487578481zM-723.7489928751663,66.730803503643L-730.405751109661,63.676802182519886L-775.7862551461108,72.32790737873215zM-730.405751109661,75.41359487578481L-775.7862551461108,84.06470007199708L-775.7862551461108,72.32790737873215zM-769.1294969116161,87.1187013931202L-723.7489928751663,78.46759619690793L-723.7489928751663,66.730803503643z" style="fill:rgb(75,179,231); fill-opacity: 0.7"></path><path d="M-794.2725202340184,9.14109815404335L-732.9615102689563,37.26949020866436" style="fill:none;stroke:rgb(1,1,1);stroke-width:1;stroke-linecap:round"></path><path d="M-769.1294969116161,87.1187013931202L-775.7862551461108,84.06470007199708L-730.405751109661,75.41359487578481z" style="fill:rgb(75,179,231); fill-opacity: 0.7"></path><path d="M-653.1584084291084,22.056238534640492L-653.1584084291084,130.1560956160898L-509.9988660425581,-5.234958143847157z" style="fill:rgb(240,240,240); fill-opacity: 0.36"></path><path d="M-775.7862551461108,72.32790737873215L-775.7862551461108,84.06470007199708M-775.7862551461108,84.06470007199708L-769.129496911616,87.1187013931202" style="fill:none;stroke:rgb(1,1,1);stroke-width:1;stroke-linecap:round"></path><path d="M-769.1294969116161,75.38190869985527L-723.7489928751663,66.730803503643L-775.7862551461108,72.32790737873215z" style="fill:rgb(75,179,231); fill-opacity: 0.7"></path><path d="M-653.1584084291082,22.0562385346405L-653.1584084291082,130.15609561608983" style="fill:none;stroke:rgb(1,1,1);stroke-width:1;stroke-linecap:round"></path><path d="M-687.5810062325066,136.7182420939014L-732.9615102689564,145.36934729011367L-748.8920161975685,108.5898500392804z" style="fill:rgb(240,240,240); fill-opacity: 0.36"></path><path d="M-769.1294969116161,75.38190869985527L-769.1294969116161,87.1187013931202L-723.7489928751663,66.730803503643z" style="fill:rgb(75,179,231); fill-opacity: 0.7"></path><path d="M-775.7862551461108,72.32790737873215L-769.129496911616,75.38190869985527M-663.2313273270579,56.96388751770348L-663.2313273270579,68.70068021096841M-663.2313273270579,68.70068021096841L-656.5745690925633,71.75468153209154" style="fill:none;stroke:rgb(1,1,1);stroke-width:1;stroke-linecap:round"></path><path d="M-687.5810062325066,28.618385012452094L-748.8920161975685,0.4899929578310814L-794.2725202340183,9.141098154043348z" style="fill:rgb(240,240,240); fill-opacity: 0.36"></path><path d="M-775.7862551461108,72.32790737873215L-775.7862551461108,84.06470007199708L-769.1294969116161,75.38190869985527z" style="fill:rgb(75,179,231); fill-opacity: 0.7"></path><path d="M-663.2313273270579,56.96388751770348L-656.5745690925633,60.01788883882661" style="fill:none;stroke:rgb(1,1,1);stroke-width:1;stroke-linecap:round"></path><path d="M-775.7862551461108,84.06470007199708L-769.1294969116161,87.1187013931202L-769.1294969116161,75.38190869985527zM-663.2313273270579,56.96388751770348L-663.2313273270579,68.70068021096841L-656.5745690925634,60.01788883882662z" style="fill:rgb(75,179,231); fill-opacity: 0.7"></path><path d="M-769.129496911616,75.38190869985527L-769.129496911616,87.1187013931202" style="fill:none;stroke:rgb(1,1,1);stroke-width:1;stroke-linecap:round"></path><path d="M-663.2313273270579,68.70068021096841L-656.5745690925634,71.75468153209155L-656.5745690925634,60.01788883882662z" style="fill:rgb(75,179,231); fill-opacity: 0.7"></path><path d="M-794.2725202340183,9.141098154043348L-794.2725202340183,117.24095523549265L-732.9615102689564,37.269490208664365z" style="fill:rgb(240,240,240); fill-opacity: 0.36"></path><path d="M-656.5745690925633,60.01788883882661L-656.5745690925633,71.75468153209154" style="fill:none;stroke:rgb(1,1,1);stroke-width:1;stroke-linecap:round"></path><path d="M-687.5810062325066,28.618385012452094L-687.5810062325066,136.7182420939014L-748.8920161975685,0.4899929578310814z" style="fill:rgb(240,240,240); fill-opacity: 0.36"></path><path d="M-732.9615102689563,145.3693472901137L-687.5810062325065,136.7182420939014M-687.5810062325065,28.618385012452094L-687.5810062325065,136.7182420939014" style="fill:none;stroke:rgb(1,1,1);stroke-width:1;stroke-linecap:round"></path><path d="M-794.2725202340183,117.24095523549265L-732.9615102689564,145.36934729011367L-732.9615102689564,37.269490208664365zM-732.9615102689564,145.36934729011367L-687.5810062325066,136.7182420939014L-687.5810062325066,28.618385012452094zM-732.9615102689564,37.269490208664365L-687.5810062325066,28.618385012452094L-794.2725202340183,9.141098154043348z" style="fill:rgb(240,240,240); fill-opacity: 0.36"></path><path d="M-732.9615102689563,37.26949020866436L-732.9615102689563,145.3693472901137M-732.9615102689563,37.26949020866436L-687.5810062325065,28.618385012452094" style="fill:none;stroke:rgb(1,1,1);stroke-width:1;stroke-linecap:round"></path><path d="M-732.9615102689564,37.269490208664365L-732.9615102689564,145.36934729011367L-687.5810062325066,28.618385012452094z" style="fill:rgb(240,240,240); fill-opacity: 0.36"></path></svg>