<svg viewBox="-939 -461.5 1878 923" width="1878" height="923" style="background-color: none;" xmlns="http://www.w3.org/2000/svg"><path d="M770.1257393942417,-158.0571718236179L770.1257393942417,10.675596460053344M770.1257393942417,10.675596460053344L738.5571254347352,12.421859357874835M770.1257393942417,10.675596460053344L782.9261113824075,14.982275933439118M738.5571254347352,-156.31090892579638L738.5571254347352,12.421859357874835M738.5571254347352,12.421859357874835L751.357497422901,16.72853883126061" style="fill:none;stroke:rgb(0,0,0);stroke-width:1;stroke-linecap:round"></path><path d="M770.1257393942416,10.675596460053347L738.5571254347351,12.421859357874851L738.5571254347351,-156.31090892579638zM782.9261113824074,14.982275933439121L770.1257393942416,10.675596460053347L770.1257393942416,-158.0571718236179zM751.3574974229009,16.728538831260625L738.5571254347351,12.421859357874851L770.1257393942416,10.675596460053347zM770.1257393942416,-158.0571718236179L770.1257393942416,10.675596460053347L738.5571254347351,-156.31090892579638z" style="fill:rgb(240,240,240); fill-opacity: 0.36"></path><path d="M770.1257393942417,-158.0571718236179L738.5571254347352,-156.31090892579638M770.1257393942417,-158.0571718236179L782.9261113824075,-153.7504923502321" style="fill:none;stroke:rgb(0,0,0);stroke-width:1;stroke-linecap:round"></path><path d="M782.9261113824074,14.982275933439121L751.3574974229009,16.728538831260625L770.1257393942416,10.675596460053347z" style="fill:rgb(240,240,240); fill-opacity: 0.36"></path><path d="M700.6038899531712,-154.2114715840508L700.6038899531712,14.521296699620395M700.6038899531712,14.521296699620395L669.0352759936648,16.267559597441885M700.6038899531712,14.521296699620395L713.404261941337,18.827976173006167M751.357497422901,16.72853883126061L782.9261113824075,14.982275933439118M782.9261113824075,-153.7504923502321L782.9261113824075,14.982275933439118M738.5571254347352,-156.31090892579638L751.357497422901,-152.0042294524106" style="fill:none;stroke:rgb(0,0,0);stroke-width:1;stroke-linecap:round"></path><path d="M782.9261113824074,-153.7504923502321L782.9261113824074,14.982275933439121L770.1257393942416,-158.0571718236179zM782.9261113824074,-153.7504923502321L770.1257393942416,-158.0571718236179L738.5571254347351,-156.31090892579638zM738.5571254347351,-156.31090892579638L738.5571254347351,12.421859357874851L751.3574974229009,-152.00422945241058z" style="fill:rgb(240,240,240); fill-opacity: 0.36"></path><path d="M669.0352759936648,-152.46520868622935L669.0352759936648,16.267559597441885M669.0352759936648,16.267559597441885L681.8356479818306,20.57423907082766" style="fill:none;stroke:rgb(0,0,0);stroke-width:1;stroke-linecap:round"></path><path d="M738.5571254347351,12.421859357874851L751.3574974229009,16.728538831260625L751.3574974229009,-152.00422945241058z" style="fill:rgb(240,240,240); fill-opacity: 0.36"></path><path d="M726.2495240636688,-77.84806092339872L724.8519109257923,-66.97816436174993L728.5109093925902,-68.88142886616471zM724.8519109257923,-66.97816436174993L728.5109093925902,-58.73851476059774L728.5109093925902,-68.88142886616471z" style="fill:rgb(0,0,0)"></path><path d="M751.3574974229009,16.728538831260625L782.9261113824074,14.982275933439121L782.9261113824074,-153.7504923502321z" style="fill:rgb(240,240,240); fill-opacity: 0.36"></path><path d="M751.357497422901,-152.0042294524106L751.357497422901,16.72853883126061" style="fill:none;stroke:rgb(0,0,0);stroke-width:1;stroke-linecap:round"></path><path d="M700.6038899531712,14.521296699620391L669.0352759936649,16.26755959744189L669.0352759936649,-152.46520868622935zM713.4042619413372,18.827976173006164L700.6038899531712,14.521296699620391L700.6038899531712,-154.21147158405083z" style="fill:rgb(240,240,240); fill-opacity: 0.36"></path><path d="M710.7993994607125,-67.90169143777752L728.5109093925902,-68.88142886616471" style="fill:none;stroke:rgb(0,0,0);stroke-width:1;stroke-linecap:round"></path><path d="M681.8356479818307,20.574239070827662L669.0352759936649,16.26755959744189L700.6038899531712,14.521296699620391z" style="fill:rgb(240,240,240); fill-opacity: 0.36"></path><path d="M732.1699078593881,-64.51602754187034L728.5109093925902,-58.73851476059774L741.1619879153596,-69.58124131501272zM730.7722947215116,-76.32637674320681L726.2495240636688,-77.84806092339872L728.5109093925902,-68.88142886616471z" style="fill:rgb(0,0,0)"></path><path d="M700.6038899531712,-154.21147158405083L700.6038899531712,14.521296699620391L669.0352759936649,-152.46520868622935z" style="fill:rgb(240,240,240); fill-opacity: 0.36"></path><path d="M728.5109093925902,-58.73851476059774L732.1699078593881,-64.51602754187034L728.5109093925902,-68.88142886616471zM730.7722947215116,-76.32637674320681L732.1699078593881,-64.51602754187034L741.1619879153596,-69.58124131501272z" style="fill:rgb(0,0,0)"></path><path d="M700.6038899531712,-154.2114715840508L669.0352759936648,-152.46520868622935M700.6038899531712,-154.2114715840508L713.404261941337,-149.90479211066506" style="fill:none;stroke:rgb(0,0,0);stroke-width:1;stroke-linecap:round"></path><path d="M732.1699078593881,-64.51602754187034L730.7722947215116,-76.32637674320681L728.5109093925902,-68.88142886616471z" style="fill:rgb(0,0,0)"></path><path d="M751.3574974229009,-152.00422945241058L782.9261113824074,-153.7504923502321L738.5571254347351,-156.31090892579638zM713.4042619413372,18.827976173006164L681.8356479818307,20.574239070827662L700.6038899531712,14.521296699620391z" style="fill:rgb(240,240,240); fill-opacity: 0.36"></path><path d="M631.0820405121011,-167.2390528159085L631.0820405121011,35.24027841061216M631.0820405121011,35.24027841061216L599.5134265525946,36.98654130843365M631.0820405121011,35.24027841061216L643.8824125002669,39.54695788399793M751.357497422901,-152.0042294524106L782.9261113824075,-153.7504923502321" style="fill:none;stroke:rgb(0,0,0);stroke-width:1;stroke-linecap:round"></path><path d="M751.3574974229009,-152.00422945241058L751.3574974229009,16.728538831260625L782.9261113824074,-153.7504923502321z" style="fill:rgb(240,240,240); fill-opacity: 0.36"></path><path d="M681.8356479818306,20.57423907082766L713.404261941337,18.827976173006167M713.404261941337,-149.90479211066506L713.404261941337,18.827976173006167M669.0352759936648,-152.46520868622935L681.8356479818306,-148.15852921284355" style="fill:none;stroke:rgb(0,0,0);stroke-width:1;stroke-linecap:round"></path><path d="M713.4042619413372,-149.90479211066506L713.4042619413372,18.827976173006164L700.6038899531712,-154.21147158405083zM713.4042619413372,-149.90479211066506L700.6038899531712,-154.21147158405083L669.0352759936649,-152.46520868622935z" style="fill:rgb(240,240,240); fill-opacity: 0.36"></path><path d="M599.5134265525946,-165.49278991808703L599.5134265525946,36.98654130843365M599.5134265525946,36.98654130843365L612.3137985407606,41.29322078181943" style="fill:none;stroke:rgb(0,0,0);stroke-width:1;stroke-linecap:round"></path><path d="M669.0352759936649,-152.46520868622935L669.0352759936649,16.26755959744189L681.8356479818307,-148.15852921284355zM669.0352759936649,16.26755959744189L681.8356479818307,20.574239070827662L681.8356479818307,-148.15852921284355z" style="fill:rgb(240,240,240); fill-opacity: 0.36"></path><path d="M656.7276746225983,-74.00236068383168L655.3300614847218,-63.132464122182895L658.9890599515197,-65.03572862659766zM655.3300614847218,-63.132464122182895L658.9890599515197,-54.8928145210307L658.9890599515197,-65.03572862659766z" style="fill:rgb(0,0,0)"></path><path d="M681.8356479818307,20.574239070827662L713.4042619413372,18.827976173006164L713.4042619413372,-149.90479211066506zM631.082040512101,35.24027841061215L599.5134265525945,36.98654130843365L599.5134265525945,-165.49278991808703z" style="fill:rgb(240,240,240); fill-opacity: 0.36"></path><path d="M681.8356479818306,-148.15852921284355L681.8356479818306,20.57423907082766" style="fill:none;stroke:rgb(0,0,0);stroke-width:1;stroke-linecap:round"></path><path d="M612.3137985407604,41.29322078181943L599.5134265525945,36.98654130843365L631.082040512101,35.24027841061215zM643.8824125002669,39.54695788399792L631.082040512101,35.24027841061215L631.082040512101,-167.23905281590854z" style="fill:rgb(240,240,240); fill-opacity: 0.36"></path><path d="M641.277550019642,-64.05599119821048L658.9890599515197,-65.03572862659766" style="fill:none;stroke:rgb(0,0,0);stroke-width:1;stroke-linecap:round"></path><path d="M662.6480584183176,-60.670327302303306L658.9890599515197,-54.8928145210307L671.6401384742894,-65.73554107544567zM661.2504452804411,-72.48067650363977L656.7276746225983,-74.00236068383168L658.9890599515197,-65.03572862659766z" style="fill:rgb(0,0,0)"></path><path d="M631.082040512101,-167.23905281590854L631.082040512101,35.24027841061215L599.5134265525945,-165.49278991808703z" style="fill:rgb(240,240,240); fill-opacity: 0.36"></path><path d="M658.9890599515197,-54.8928145210307L662.6480584183176,-60.670327302303306L658.9890599515197,-65.03572862659766zM661.2504452804411,-72.48067650363977L662.6480584183176,-60.670327302303306L671.6401384742894,-65.73554107544567z" style="fill:rgb(0,0,0)"></path><path d="M643.8824125002669,39.54695788399792L612.3137985407604,41.29322078181943L631.082040512101,35.24027841061215z" style="fill:rgb(240,240,240); fill-opacity: 0.36"></path><path d="M662.6480584183176,-60.670327302303306L661.2504452804411,-72.48067650363977L658.9890599515197,-65.03572862659766z" style="fill:rgb(0,0,0)"></path><path d="M681.8356479818307,-148.15852921284355L713.4042619413372,-149.90479211066506L669.0352759936649,-152.46520868622935z" style="fill:rgb(240,240,240); fill-opacity: 0.36"></path><path d="M631.0820405121011,-167.2390528159085L599.5134265525946,-165.49278991808703M631.0820405121011,-167.2390528159085L643.8824125002669,-162.93237334252277M681.8356479818306,-148.15852921284355L713.404261941337,-149.90479211066506" style="fill:none;stroke:rgb(0,0,0);stroke-width:1;stroke-linecap:round"></path><path d="M681.8356479818307,-148.15852921284355L681.8356479818307,20.574239070827662L713.4042619413372,-149.90479211066506z" style="fill:rgb(240,240,240); fill-opacity: 0.36"></path><path d="M612.3137985407606,41.29322078181943L643.8824125002669,39.54695788399793M643.8824125002669,-162.93237334252277L643.8824125002669,39.54695788399793" style="fill:none;stroke:rgb(0,0,0);stroke-width:1;stroke-linecap:round"></path><path d="M643.8824125002669,-162.93237334252277L643.8824125002669,39.54695788399792L631.082040512101,-167.23905281590854z" style="fill:rgb(240,240,240); fill-opacity: 0.36"></path><path d="M599.5134265525946,-165.49278991808703L612.3137985407606,-161.18611044470123" style="fill:none;stroke:rgb(0,0,0);stroke-width:1;stroke-linecap:round"></path><path d="M599.5134265525945,-165.49278991808703L599.5134265525945,36.98654130843365L612.3137985407604,-161.18611044470126zM643.8824125002669,-162.93237334252277L631.082040512101,-167.23905281590854L599.5134265525945,-165.49278991808703zM599.5134265525945,36.98654130843365L612.3137985407604,41.29322078181943L612.3137985407604,-161.18611044470126z" style="fill:rgb(240,240,240); fill-opacity: 0.36"></path><path d="M612.3137985407606,-161.18611044470123L612.3137985407606,41.29322078181943" style="fill:none;stroke:rgb(0,0,0);stroke-width:1;stroke-linecap:round"></path><path d="M587.2058251815281,-70.15666044426465L585.8082120436513,-59.28676388261586L589.4672105104495,-61.19002838703063z" style="fill:rgb(0,0,0)"></path><path d="M612.3137985407604,41.29322078181943L643.8824125002669,39.54695788399792L643.8824125002669,-162.93237334252277z" style="fill:rgb(240,240,240); fill-opacity: 0.36"></path><path d="M585.8082120436513,-59.28676388261586L589.4672105104495,-51.047114281463664L589.4672105104495,-61.19002838703063z" style="fill:rgb(0,0,0)"></path><path d="M571.7557005785718,-60.210290958643434L589.4672105104495,-61.19002838703063" style="fill:none;stroke:rgb(0,0,0);stroke-width:1;stroke-linecap:round"></path><path d="M593.1262089772474,-56.82462706273627L589.4672105104495,-51.047114281463664L602.1182890332192,-61.88984083587863zM591.7285958393709,-68.63497626407273L587.2058251815281,-70.15666044426465L589.4672105104495,-61.19002838703063zM589.4672105104495,-51.047114281463664L593.1262089772474,-56.82462706273627L589.4672105104495,-61.19002838703063zM591.7285958393709,-68.63497626407273L593.1262089772474,-56.82462706273627L602.1182890332192,-61.88984083587863zM593.1262089772474,-56.82462706273627L591.7285958393709,-68.63497626407273L589.4672105104495,-61.19002838703063z" style="fill:rgb(0,0,0)"></path><path d="M612.3137985407604,-161.18611044470126L643.8824125002669,-162.93237334252277L599.5134265525945,-165.49278991808703zM612.3137985407604,-161.18611044470126L612.3137985407604,41.29322078181943L643.8824125002669,-162.93237334252277z" style="fill:rgb(240,240,240); fill-opacity: 0.36"></path><path d="M612.3137985407606,-161.18611044470123L643.8824125002669,-162.93237334252277M551.4066106315082,-61.414682992231185L551.4066106315082,-57.3575173500044M551.4066106315082,-57.3575173500044L361.9949268744696,-46.87993996307541M551.4066106315082,-57.3575173500044L552.9455300596846,-56.839748591514486M551.4066106315082,-61.414682992231185L361.9949268744696,-50.93710560530219M551.4066106315082,-61.414682992231185L552.9455300596846,-60.89691423374128" style="fill:none;stroke:rgb(0,0,0);stroke-width:1;stroke-linecap:round"></path><path d="M552.9455300596848,-56.839748591514486L551.4066106315083,-57.35751735000441L551.4066106315083,-61.4146829922312zM552.9455300596848,-60.89691423374128L552.9455300596848,-56.839748591514486L551.4066106315083,-61.4146829922312z" style="fill:rgb(240,240,240); fill-opacity: 0.36"></path><path d="M363.53384630264594,-46.362171204585486L552.9455300596846,-56.839748591514486M552.9455300596846,-60.89691423374128L552.9455300596846,-56.839748591514486M363.53384630264594,-50.41933684681228L552.9455300596846,-60.89691423374128" style="fill:none;stroke:rgb(0,0,0);stroke-width:1;stroke-linecap:round"></path><path d="M551.4066106315083,-61.4146829922312L551.4066106315083,-57.35751735000441L361.99492687446957,-50.93710560530221zM552.9455300596848,-60.89691423374128L551.4066106315083,-61.4146829922312L361.99492687446957,-50.93710560530221zM552.9455300596848,-56.839748591514486L363.53384630264594,-46.36217120458549L551.4066106315083,-57.35751735000441zM363.53384630264594,-46.36217120458549L552.9455300596848,-56.839748591514486L552.9455300596848,-60.89691423374128zM551.4066106315083,-57.35751735000441L361.99492687446957,-46.879939963075415L361.99492687446957,-50.93710560530221zM363.53384630264594,-46.36217120458549L361.99492687446957,-46.879939963075415L551.4066106315083,-57.35751735000441zM363.53384630264594,-50.419336846812286L552.9455300596848,-60.89691423374128L361.99492687446957,-50.93710560530221zM363.53384630264594,-50.419336846812286L363.53384630264594,-46.36217120458549L552.9455300596848,-60.89691423374128z" style="fill:rgb(240,240,240); fill-opacity: 0.36"></path><path d="M318.4109655466378,-65.57681842609345L318.4109655466378,-31.830263221673356M318.4109655466378,-31.830263221673356L128.9992817895991,-21.35268583474436M318.4109655466378,-31.830263221673356L331.2113375348036,-27.523583748287574M361.9949268744696,-50.93710560530219L361.9949268744696,-46.87993996307541M361.9949268744696,-46.87993996307541L363.53384630264594,-46.362171204585486M361.9949268744696,-50.93710560530219L363.53384630264594,-50.41933684681228" style="fill:none;stroke:rgb(0,0,0);stroke-width:1;stroke-linecap:round"></path><path d="M361.99492687446957,-50.93710560530221L361.99492687446957,-46.879939963075415L363.53384630264594,-50.419336846812286z" style="fill:rgb(240,240,240); fill-opacity: 0.36"></path><path d="M328.387077185378,-57.313962844080116L362.76438482560053,-48.64963830742335M328.387077185378,-49.19963180145246L362.76438482560053,-48.64963830742335M331.46491640863763,-48.164094161026924L362.76438482560053,-48.64963830742335M331.46491640863763,-56.278425203654585L362.76438482560053,-48.64963830742335" style="fill:none;stroke:rgb(0,0,0);stroke-width:1;stroke-linecap:round"></path><path d="M361.99492687446957,-46.879939963075415L363.53384630264594,-46.36217120458549L363.53384630264594,-50.419336846812286z" style="fill:rgb(240,240,240); fill-opacity: 0.36"></path><path d="M363.53384630264594,-50.41933684681228L363.53384630264594,-46.362171204585486M318.4109655466378,-65.57681842609345L128.9992817895991,-55.09924103916447M318.4109655466378,-65.57681842609345L331.2113375348036,-61.27013895270768" style="fill:none;stroke:rgb(0,0,0);stroke-width:1;stroke-linecap:round"></path><path d="M331.21133753480353,-27.523583748287574L318.4109655466377,-31.830263221673356L318.4109655466377,-65.57681842609347z" style="fill:rgb(240,240,240); fill-opacity: 0.36"></path><path d="M328.38707935191957,-49.19963178738551L328.38707935191957,-57.31396307183908L362.7643868487938,-48.649638419339176zM331.46491820827237,-48.16409427040567L328.38707935191957,-49.19963178738551L362.7643868487938,-48.649638419339176zM328.38707935191957,-57.31396307183908L331.46491820827237,-56.278425554859254L362.7643868487938,-48.649638419339176z" style="fill:rgb(254,144,144); fill-opacity: 0.7"></path><path d="M331.21133753480353,-61.27013895270768L331.21133753480353,-27.523583748287574L318.4109655466377,-65.57681842609347z" style="fill:rgb(240,240,240); fill-opacity: 0.36"></path><path d="M331.46491820827237,-56.278425554859254L331.46491820827237,-48.16409427040567L362.7643868487938,-48.649638419339176z" style="fill:rgb(254,144,144); fill-opacity: 0.7"></path><path d="M328.3870796121557,-57.313963086234416L328.3870796121557,-49.199631801780846M328.3870796121557,-49.199631801780846L138.975395855117,-38.722054414851854M328.3870796121557,-49.199631801780846L331.4649184685084,-48.164094284801M328.387077185378,-57.313962844080116L328.387077185378,-49.19963180145246M328.387077185378,-49.19963180145246L331.46491640863763,-48.164094161026924M328.3870796121557,-57.313963086234416L138.975395855117,-46.83638569930543M328.3870796121557,-57.313963086234416L331.4649184685084,-56.27842556925458M328.387077185378,-57.313962844080116L331.46491640863763,-56.278425203654585" style="fill:none;stroke:rgb(0,0,0);stroke-width:1;stroke-linecap:round"></path><path d="M318.4109655466377,-65.57681842609347L318.4109655466377,-31.830263221673356L128.9992817895991,-55.09924103916447z" style="fill:rgb(240,240,240); fill-opacity: 0.36"></path><path d="M331.46491846850836,-48.164094284801L328.38707961215556,-49.19963180178083L328.38707961215556,-57.313963086234416z" style="fill:rgb(75,179,231); fill-opacity: 0.7"></path><path d="M328.38707935191957,-57.31396307183908L328.38707935191957,-49.19963178738551L331.46491820827237,-48.16409427040567z" style="fill:rgb(254,144,144); fill-opacity: 0.7"></path><path d="M141.79965377776492,-17.04600636135858L331.2113375348036,-27.523583748287574M331.2113375348036,-61.27013895270768L331.2113375348036,-27.523583748287574" style="fill:none;stroke:rgb(0,0,0);stroke-width:1;stroke-linecap:round"></path><path d="M331.46491846850836,-56.27842556925457L331.46491846850836,-48.164094284801L328.38707961215556,-57.313963086234416z" style="fill:rgb(75,179,231); fill-opacity: 0.7"></path><path d="M328.38707935191957,-57.31396307183908L331.46491820827237,-48.16409427040567L331.46491820827237,-56.278425554859254z" style="fill:rgb(254,144,144); fill-opacity: 0.7"></path><path d="M142.05323471146974,-37.68651689787202L331.4649184685084,-48.164094284801M331.4649184685084,-56.27842556925458L331.4649184685084,-48.164094284801M331.46491640863763,-48.164094161026924L331.46491640863763,-56.278425203654585M142.05323471146974,-45.80084818232559L331.4649184685084,-56.27842556925458M141.79965377776492,-50.79256156577869L331.2113375348036,-61.27013895270768" style="fill:none;stroke:rgb(0,0,0);stroke-width:1;stroke-linecap:round"></path><path d="M331.21133753480353,-61.27013895270768L318.4109655466377,-65.57681842609347L128.9992817895991,-55.09924103916447zM331.21133753480353,-27.523583748287574L141.79965377776486,-17.046006361358582L318.4109655466377,-31.830263221673356zM318.4109655466377,-31.830263221673356L128.9992817895991,-21.352685834744364L128.9992817895991,-55.09924103916447z" style="fill:rgb(240,240,240); fill-opacity: 0.36"></path><path d="M328.38707961215556,-57.313963086234416L328.38707961215556,-49.19963180178083L138.975395855117,-46.83638569930543zM331.46491846850836,-56.27842556925457L328.38707961215556,-57.313963086234416L138.975395855117,-46.83638569930543zM331.46491846850836,-48.164094284801L142.05323471146974,-37.686516897872L328.38707961215556,-49.19963180178083z" style="fill:rgb(75,179,231); fill-opacity: 0.7"></path><path d="M141.79965377776486,-17.046006361358582L331.21133753480353,-27.523583748287574L331.21133753480353,-61.27013895270768z" style="fill:rgb(240,240,240); fill-opacity: 0.36"></path><path d="M142.05323471146974,-37.686516897872L331.46491846850836,-48.164094284801L331.46491846850836,-56.27842556925457z" style="fill:rgb(75,179,231); fill-opacity: 0.7"></path><path d="M141.79965377776486,-17.046006361358582L128.9992817895991,-21.352685834744364L318.4109655466377,-31.830263221673356z" style="fill:rgb(240,240,240); fill-opacity: 0.36"></path><path d="M128.9992817895991,-55.09924103916447L128.9992817895991,-21.35268583474436M128.9992817895991,-21.35268583474436L141.79965377776492,-17.04600636135858" style="fill:none;stroke:rgb(0,0,0);stroke-width:1;stroke-linecap:round"></path><path d="M141.79965377776486,-50.7925615657787L331.21133753480353,-61.27013895270768L128.9992817895991,-55.09924103916447z" style="fill:rgb(240,240,240); fill-opacity: 0.36"></path><path d="M328.38707961215556,-49.19963180178083L138.975395855117,-38.72205441485185L138.975395855117,-46.83638569930543zM142.05323471146974,-37.686516897872L138.975395855117,-38.72205441485185L328.38707961215556,-49.19963180178083z" style="fill:rgb(75,179,231); fill-opacity: 0.7"></path><path d="M128.9992817895991,-55.09924103916447L141.79965377776492,-50.79256156577869" style="fill:none;stroke:rgb(0,0,0);stroke-width:1;stroke-linecap:round"></path><path d="M142.05323471146974,-45.80084818232559L331.46491846850836,-56.27842556925457L138.975395855117,-46.83638569930543z" style="fill:rgb(75,179,231); fill-opacity: 0.7"></path><path d="M141.79965377776486,-50.7925615657787L141.79965377776486,-17.046006361358582L331.21133753480353,-61.27013895270768z" style="fill:rgb(240,240,240); fill-opacity: 0.36"></path><path d="M142.05323471146974,-45.80084818232559L142.05323471146974,-37.686516897872L331.46491846850836,-56.27842556925457z" style="fill:rgb(75,179,231); fill-opacity: 0.7"></path><path d="M128.9992817895991,-55.09924103916447L128.9992817895991,-21.352685834744364L141.79965377776486,-50.7925615657787z" style="fill:rgb(240,240,240); fill-opacity: 0.36"></path><path d="M91.04604674176203,-52.99980372141115L91.04604674176203,-19.253248516991036M91.04604674176203,-19.253248516991036L-98.36563701527668,-8.775671130062042M91.04604674176203,-19.253248516991036L103.84641872992782,-14.946569043605257M91.04604674176203,-52.99980372141115L-98.36563701527668,-42.522226334482156M91.04604674176203,-52.99980372141115L103.84641872992782,-48.69312424802537M96.94364284095779,-45.91919474653171L136.43579783744332,-43.44369769235899M96.94364284095779,-37.804863462078124L136.43579783744332,-43.44369769235899M100.02148160558383,-36.76932597595972L136.43579783744332,-43.44369769235899M100.02148160558383,-44.88365726041329L136.43579783744332,-43.44369769235899" style="fill:none;stroke:rgb(0,0,0);stroke-width:1;stroke-linecap:round"></path><path d="M128.9992817895991,-21.352685834744364L141.79965377776486,-17.046006361358582L141.79965377776486,-50.7925615657787zM103.84641872992778,-14.946569043605257L91.04604674176203,-19.253248516991036L91.04604674176203,-52.999803721411155z" style="fill:rgb(240,240,240); fill-opacity: 0.36"></path><path d="M138.975395855117,-46.83638569930543L138.975395855117,-38.722054414851854M138.975395855117,-38.722054414851854L142.05323471146974,-37.68651689787202M138.975395855117,-46.83638569930543L142.05323471146974,-45.80084818232559" style="fill:none;stroke:rgb(0,0,0);stroke-width:1;stroke-linecap:round"></path><path d="M96.94363090568254,-37.80486268856521L96.94363090568254,-45.919193973018785L136.43578590216808,-43.44369691884606z" style="fill:rgb(254,144,144); fill-opacity: 0.7"></path><path d="M138.975395855117,-46.83638569930543L138.975395855117,-38.72205441485185L142.05323471146974,-45.80084818232559z" style="fill:rgb(75,179,231); fill-opacity: 0.7"></path><path d="M141.79965377776492,-50.79256156577869L141.79965377776492,-17.04600636135858" style="fill:none;stroke:rgb(0,0,0);stroke-width:1;stroke-linecap:round"></path><path d="M100.02146976203528,-36.769325171585365L96.94363090568254,-37.80486268856521L136.43578590216808,-43.44369691884606zM96.94363090568254,-45.919193973018785L100.02146976203528,-44.88365645603895L136.43578590216808,-43.44369691884606z" style="fill:rgb(254,144,144); fill-opacity: 0.7"></path><path d="M96.94364284095779,-45.91919474653171L96.94364284095779,-37.804863462078124M96.94364284095779,-37.804863462078124L100.02148160558383,-36.76932597595972M96.94363116591865,-45.91919398741412L96.94363116591865,-37.80486270296055M96.94363116591865,-37.80486270296055L-92.46805259112006,-27.32728531603155M96.94363116591865,-37.80486270296055L100.02147002227139,-36.769325185980705" style="fill:none;stroke:rgb(0,0,0);stroke-width:1;stroke-linecap:round"></path><path d="M138.975395855117,-38.72205441485185L142.05323471146974,-37.686516897872L142.05323471146974,-45.80084818232559z" style="fill:rgb(75,179,231); fill-opacity: 0.7"></path><path d="M96.94364284095779,-45.91919474653171L100.02148160558383,-44.88365726041329M96.94363116591865,-45.91919398741412L-92.46805259112006,-35.441616600485126M96.94363116591865,-45.91919398741412L100.02147002227139,-44.88365647043428" style="fill:none;stroke:rgb(0,0,0);stroke-width:1;stroke-linecap:round"></path><path d="M100.02146976203528,-44.88365645603895L100.02146976203528,-36.769325171585365L136.43578590216808,-43.44369691884606z" style="fill:rgb(254,144,144); fill-opacity: 0.7"></path><path d="M142.05323471146974,-45.80084818232559L142.05323471146974,-37.68651689787202" style="fill:none;stroke:rgb(0,0,0);stroke-width:1;stroke-linecap:round"></path><path d="M100.02147002227133,-36.769325185980705L96.94363116591859,-37.80486270296054L96.94363116591859,-45.91919398741412z" style="fill:rgb(75,179,231); fill-opacity: 0.7"></path><path d="M96.94363090568254,-45.919193973018785L96.94363090568254,-37.80486268856521L100.02146976203528,-36.769325171585365z" style="fill:rgb(254,144,144); fill-opacity: 0.7"></path><path d="M100.02147002227133,-44.883656470434275L100.02147002227133,-36.769325185980705L96.94363116591859,-45.91919398741412z" style="fill:rgb(75,179,231); fill-opacity: 0.7"></path><path d="M96.94363090568254,-45.919193973018785L100.02146976203528,-36.769325171585365L100.02146976203528,-44.88365645603895z" style="fill:rgb(254,144,144); fill-opacity: 0.7"></path><path d="M103.84641872992778,-48.69312424802537L103.84641872992778,-14.946569043605257L91.04604674176203,-52.999803721411155z" style="fill:rgb(240,240,240); fill-opacity: 0.36"></path><path d="M100.02148160558383,-36.76932597595972L100.02148160558383,-44.88365726041329M-89.39021373476731,-26.291747799051713L100.02147002227139,-36.769325185980705M100.02147002227139,-44.88365647043428L100.02147002227139,-36.769325185980705M-89.39021373476731,-34.40607908350528L100.02147002227139,-44.88365647043428" style="fill:none;stroke:rgb(0,0,0);stroke-width:1;stroke-linecap:round"></path><path d="M91.04604674176203,-52.999803721411155L91.04604674176203,-19.253248516991036L-98.36563701527668,-42.522226334482156z" style="fill:rgb(240,240,240); fill-opacity: 0.36"></path><path d="M-85.56526502711088,-4.468991656676262L103.84641872992782,-14.946569043605257M103.84641872992782,-48.69312424802537L103.84641872992782,-14.946569043605257M-85.56526502711088,-38.21554686109637L103.84641872992782,-48.69312424802537" style="fill:none;stroke:rgb(0,0,0);stroke-width:1;stroke-linecap:round"></path><path d="M103.84641872992778,-48.69312424802537L91.04604674176203,-52.999803721411155L-98.36563701527668,-42.522226334482156z" style="fill:rgb(240,240,240); fill-opacity: 0.36"></path><path d="M96.94363116591859,-45.91919398741412L96.94363116591859,-37.80486270296054L-92.46805259112006,-35.441616600485126z" style="fill:rgb(75,179,231); fill-opacity: 0.7"></path><path d="M103.84641872992778,-14.946569043605257L-85.56526502711088,-4.468991656676264L91.04604674176203,-19.253248516991036z" style="fill:rgb(240,240,240); fill-opacity: 0.36"></path><path d="M100.02147002227133,-44.883656470434275L96.94363116591859,-45.91919398741412L-92.46805259112006,-35.441616600485126zM100.02147002227133,-36.769325185980705L-89.39021373476734,-26.291747799051706L96.94363116591859,-37.80486270296054zM-89.39021373476734,-26.291747799051706L100.02147002227133,-36.769325185980705L100.02147002227133,-44.883656470434275z" style="fill:rgb(75,179,231); fill-opacity: 0.7"></path><path d="M91.04604674176203,-19.253248516991036L-98.36563701527668,-8.775671130062044L-98.36563701527668,-42.522226334482156zM-85.56526502711088,-4.468991656676264L103.84641872992778,-14.946569043605257L103.84641872992778,-48.69312424802537zM-85.56526502711088,-4.468991656676264L-98.36563701527668,-8.775671130062044L91.04604674176203,-19.253248516991036z" style="fill:rgb(240,240,240); fill-opacity: 0.36"></path><path d="M-144.7794579780206,-65.57460973173173L-144.7794579780206,12.782466151792066M-144.7794579780206,12.782466151792066L-334.19114173505926,23.260043538721057M-144.7794579780206,12.782466151792066L-115.05791416004101,22.782266376079956" style="fill:none;stroke:rgb(0,0,0);stroke-width:1;stroke-linecap:round"></path><path d="M96.94363116591859,-37.80486270296054L-92.46805259112006,-27.32728531603155L-92.46805259112006,-35.441616600485126zM-89.39021373476734,-26.291747799051706L-92.46805259112006,-27.32728531603155L96.94363116591859,-37.80486270296054zM-89.39021373476734,-34.40607908350528L100.02147002227133,-44.883656470434275L-92.46805259112006,-35.441616600485126z" style="fill:rgb(75,179,231); fill-opacity: 0.7"></path><path d="M-143.6018277982315,-34.08997387230763L-143.6018277982315,-21.918476945627265M-143.6018277982315,-21.918476945627265L-333.0135115552702,-11.440899558698272M-143.6018277982315,-21.918476945627265L-138.98506951370237,-20.365170670157507M-143.60183077790523,-34.089973659645516L-143.60183077790523,-21.918476732965146M-143.60183077790523,-21.918476732965146L-138.98507249337612,-20.36517045749539M-143.60183077790523,-21.918476732965146L-96.86429753661537,-26.007056395990347M-98.36563701527668,-42.522226334482156L-98.36563701527668,-8.775671130062042M-98.36563701527668,-8.775671130062042L-85.56526502711088,-4.468991656676262" style="fill:none;stroke:rgb(0,0,0);stroke-width:1;stroke-linecap:round"></path><path d="M-85.56526502711088,-38.21554686109638L103.84641872992778,-48.69312424802537L-98.36563701527668,-42.522226334482156z" style="fill:rgb(240,240,240); fill-opacity: 0.36"></path><path d="M-89.39021373476734,-34.40607908350528L-89.39021373476734,-26.291747799051706L100.02147002227133,-44.883656470434275z" style="fill:rgb(75,179,231); fill-opacity: 0.7"></path><path d="M-143.6018277982315,-34.08997387230763L-333.0135115552702,-23.612396485378635M-143.6018277982315,-34.08997387230763L-138.98506951370237,-32.53666759683787M-143.60183077790523,-34.089973659645516L-138.98507249337612,-32.53666738417575M-143.60183077790523,-34.089973659645516L-96.86429753661537,-26.007056395990347" style="fill:none;stroke:rgb(0,0,0);stroke-width:1;stroke-linecap:round"></path><path d="M-143.60182805846756,-21.918476931231936L-143.60182805846756,-34.0899738579123L-96.86429436080138,-26.00705654629007z" style="fill:rgb(254,144,144); fill-opacity: 0.7"></path><path d="M-144.7794579780206,-65.57460973173173L-334.19114173505926,-55.09703234480274M-144.7794579780206,-65.57460973173173L-115.05791416004101,-55.574809507443845" style="fill:none;stroke:rgb(0,0,0);stroke-width:1;stroke-linecap:round"></path><path d="M-138.98506951370237,-20.365170670157507L-143.60182779823145,-21.918476945627265L-143.60182779823145,-34.08997387230763z" style="fill:rgb(75,179,231); fill-opacity: 0.7"></path><path d="M-143.60182805846756,-34.0899738579123L-143.60182805846756,-21.918476931231936L-138.98506977393845,-20.365170655762178z" style="fill:rgb(254,144,144); fill-opacity: 0.7"></path><path d="M-98.36563701527668,-42.522226334482156L-85.56526502711088,-38.21554686109637" style="fill:none;stroke:rgb(0,0,0);stroke-width:1;stroke-linecap:round"></path><path d="M-138.98506977393845,-20.365170655762178L-143.60182805846756,-21.918476931231936L-96.86429436080138,-26.00705654629007z" style="fill:rgb(254,144,144); fill-opacity: 0.7"></path><path d="M-138.98507249337612,-20.36517045749539L-96.86429753661537,-26.007056395990347M-138.98507249337612,-32.53666738417575L-96.86429753661537,-26.007056395990347" style="fill:none;stroke:rgb(0,0,0);stroke-width:1;stroke-linecap:round"></path><path d="M-143.60182805846756,-34.0899738579123L-138.98506977393845,-32.53666758244254L-96.86429436080138,-26.00705654629007z" style="fill:rgb(254,144,144); fill-opacity: 0.7"></path><path d="M-138.98506951370237,-32.536667596837866L-138.98506951370237,-20.365170670157507L-143.60182779823145,-34.08997387230763z" style="fill:rgb(75,179,231); fill-opacity: 0.7"></path><path d="M-143.60182805846756,-34.0899738579123L-138.98506977393845,-20.365170655762178L-138.98506977393845,-32.53666758244254z" style="fill:rgb(254,144,144); fill-opacity: 0.7"></path><path d="M-85.56526502711088,-38.21554686109638L-85.56526502711088,-4.468991656676264L103.84641872992778,-48.69312424802537z" style="fill:rgb(240,240,240); fill-opacity: 0.36"></path><path d="M-138.98506977393845,-32.53666758244254L-138.98506977393845,-20.365170655762178L-96.86429436080138,-26.00705654629007z" style="fill:rgb(254,144,144); fill-opacity: 0.7"></path><path d="M-328.39675327074104,-9.887593283228512L-138.98506951370237,-20.365170670157507M-138.98506951370237,-32.53666759683787L-138.98506951370237,-20.365170670157507M-138.98507249337612,-20.36517045749539L-138.98507249337612,-32.53666738417575M-328.39675327074104,-22.059090209908874L-138.98506951370237,-32.53666759683787" style="fill:none;stroke:rgb(0,0,0);stroke-width:1;stroke-linecap:round"></path><path d="M-98.36563701527668,-42.522226334482156L-98.36563701527668,-8.775671130062044L-85.56526502711088,-38.21554686109638z" style="fill:rgb(240,240,240); fill-opacity: 0.36"></path><path d="M-92.46805259112006,-35.441616600485126L-92.46805259112006,-27.32728531603155M-92.46805259112006,-27.32728531603155L-89.39021373476731,-26.291747799051713M-92.46805259112006,-35.441616600485126L-89.39021373476731,-34.40607908350528" style="fill:none;stroke:rgb(0,0,0);stroke-width:1;stroke-linecap:round"></path><path d="M-115.057914160041,22.78226637607996L-144.77945797802056,12.782466151792066L-144.77945797802056,-65.57460973173173z" style="fill:rgb(240,240,240); fill-opacity: 0.36"></path><path d="M-92.46805259112006,-35.441616600485126L-92.46805259112006,-27.32728531603155L-89.39021373476734,-34.40607908350528z" style="fill:rgb(75,179,231); fill-opacity: 0.7"></path><path d="M-98.36563701527668,-8.775671130062044L-85.56526502711088,-4.468991656676264L-85.56526502711088,-38.21554686109638z" style="fill:rgb(240,240,240); fill-opacity: 0.36"></path><path d="M-92.46805259112006,-27.32728531603155L-89.39021373476734,-26.291747799051706L-89.39021373476734,-34.40607908350528z" style="fill:rgb(75,179,231); fill-opacity: 0.7"></path><path d="M-144.77945797802056,-65.57460973173173L-144.77945797802056,12.782466151792066L-334.19114173505926,-55.09703234480274z" style="fill:rgb(240,240,240); fill-opacity: 0.36"></path><path d="M-89.39021373476731,-34.40607908350528L-89.39021373476731,-26.291747799051713" style="fill:none;stroke:rgb(0,0,0);stroke-width:1;stroke-linecap:round"></path><path d="M-143.60182779823145,-34.08997387230763L-143.60182779823145,-21.918476945627265L-333.01351155527016,-23.612396485378635zM-138.98506951370237,-32.536667596837866L-143.60182779823145,-34.08997387230763L-333.01351155527016,-23.612396485378635z" style="fill:rgb(75,179,231); fill-opacity: 0.7"></path><path d="M-85.56526502711088,-38.21554686109637L-85.56526502711088,-4.468991656676262" style="fill:none;stroke:rgb(0,0,0);stroke-width:1;stroke-linecap:round"></path><path d="M-138.98506951370237,-20.365170670157507L-328.39675327074104,-9.887593283228513L-143.60182779823145,-21.918476945627265zM-328.39675327074104,-9.887593283228513L-138.98506951370237,-20.365170670157507L-138.98506951370237,-32.536667596837866z" style="fill:rgb(75,179,231); fill-opacity: 0.7"></path><path d="M-144.77945797802056,12.782466151792066L-334.19114173505926,23.260043538721057L-334.19114173505926,-55.09703234480274zM-115.057914160041,-55.574809507443845L-115.057914160041,22.78226637607996L-144.77945797802056,-65.57460973173173z" style="fill:rgb(240,240,240); fill-opacity: 0.36"></path><path d="M-143.60182779823145,-21.918476945627265L-333.01351155527016,-11.440899558698273L-333.01351155527016,-23.612396485378635z" style="fill:rgb(75,179,231); fill-opacity: 0.7"></path><path d="M-115.057914160041,-55.574809507443845L-144.77945797802056,-65.57460973173173L-334.19114173505926,-55.09703234480274z" style="fill:rgb(240,240,240); fill-opacity: 0.36"></path><path d="M-328.39675327074104,-9.887593283228513L-333.01351155527016,-11.440899558698273L-143.60182779823145,-21.918476945627265zM-328.39675327074104,-22.059090209908874L-138.98506951370237,-32.536667596837866L-333.01351155527016,-23.612396485378635zM-328.39675327074104,-22.059090209908874L-328.39675327074104,-9.887593283228513L-138.98506951370237,-32.536667596837866z" style="fill:rgb(75,179,231); fill-opacity: 0.7"></path><path d="M-304.46959791707974,33.259843763008945L-115.05791416004101,22.782266376079956M-115.05791416004101,-55.574809507443845L-115.05791416004101,22.782266376079956" style="fill:none;stroke:rgb(0,0,0);stroke-width:1;stroke-linecap:round"></path><path d="M-115.057914160041,22.78226637607996L-304.46959791707974,33.259843763008945L-144.77945797802056,12.782466151792066zM-304.46959791707974,33.259843763008945L-334.19114173505926,23.260043538721057L-144.77945797802056,12.782466151792066z" style="fill:rgb(240,240,240); fill-opacity: 0.36"></path><path d="M-334.19114173505926,-55.09703234480274L-334.19114173505926,23.260043538721057M-334.19114173505926,23.260043538721057L-304.46959791707974,33.259843763008945M-304.46959791707974,-45.09723212051485L-115.05791416004101,-55.574809507443845M-333.0135115552702,-23.612396485378635L-333.0135115552702,-11.440899558698272M-333.0135115552702,-11.440899558698272L-328.39675327074104,-9.887593283228512M-333.0135115552702,-23.612396485378635L-328.39675327074104,-22.059090209908874M-334.19114173505926,-55.09703234480274L-304.46959791707974,-45.09723212051485" style="fill:none;stroke:rgb(0,0,0);stroke-width:1;stroke-linecap:round"></path><path d="M-333.01351155527016,-23.612396485378635L-333.01351155527016,-11.440899558698273L-328.39675327074104,-22.059090209908874z" style="fill:rgb(75,179,231); fill-opacity: 0.7"></path><path d="M-372.14438044577156,-52.99759482443225L-372.14438044577156,25.359481059091546M-372.14438044577156,25.359481059091546L-529.9874430042986,34.090795147763146M-372.14438044577156,25.359481059091546L-342.4228366277919,35.35928128337944" style="fill:none;stroke:rgb(0,0,0);stroke-width:1;stroke-linecap:round"></path><path d="M-333.01351155527016,-11.440899558698273L-328.39675327074104,-9.887593283228513L-328.39675327074104,-22.059090209908874z" style="fill:rgb(75,179,231); fill-opacity: 0.7"></path><path d="M-328.39675327074104,-22.059090209908874L-328.39675327074104,-9.887593283228512" style="fill:none;stroke:rgb(0,0,0);stroke-width:1;stroke-linecap:round"></path><path d="M-304.46959791707974,33.259843763008945L-115.057914160041,22.78226637607996L-115.057914160041,-55.574809507443845z" style="fill:rgb(240,240,240); fill-opacity: 0.36"></path><path d="M-372.14438044577156,-52.99759482443225L-529.9874430042986,-44.26628073576065M-372.14438044577156,-52.99759482443225L-342.4228366277919,-42.99779460014436" style="fill:none;stroke:rgb(0,0,0);stroke-width:1;stroke-linecap:round"></path><path d="M-334.19114173505926,-55.09703234480274L-334.19114173505926,23.260043538721057L-304.46959791707974,-45.09723212051485zM-304.46959791707974,-45.09723212051485L-115.057914160041,-55.574809507443845L-334.19114173505926,-55.09703234480274zM-342.422836627792,35.35928128337944L-372.14438044577156,25.35948105909155L-372.14438044577156,-52.99759482443225zM-372.14438044577156,-52.99759482443225L-372.14438044577156,25.35948105909155L-529.9874430042986,-44.26628073576065z" style="fill:rgb(240,240,240); fill-opacity: 0.36"></path><path d="M-355.7716422354181,-25.45121800788574L-316.2794871472059,-22.975721890155256M-355.7716422354181,-17.336887690735832L-316.2794871472059,-22.975721890155256M-352.69380347079215,-16.301350204617414L-316.2794871472059,-22.975721890155256M-352.69380347079215,-24.415680521767325L-316.2794871472059,-22.975721890155256" style="fill:none;stroke:rgb(0,0,0);stroke-width:1;stroke-linecap:round"></path><path d="M-334.19114173505926,23.260043538721057L-304.46959791707974,33.259843763008945L-304.46959791707974,-45.09723212051485zM-304.46959791707974,-45.09723212051485L-304.46959791707974,33.259843763008945L-115.057914160041,-55.574809507443845z" style="fill:rgb(240,240,240); fill-opacity: 0.36"></path><path d="M-355.7716422610239,-17.336887435423083L-355.7716422610239,-25.451218719876657L-316.2794872645384,-22.975721665703933zM-352.69380340467114,-16.301349918443243L-355.7716422610239,-17.336887435423083L-316.2794872645384,-22.975721665703933z" style="fill:rgb(254,144,144); fill-opacity: 0.7"></path><path d="M-372.14438044577156,25.35948105909155L-529.9874430042986,34.090795147763146L-529.9874430042986,-44.26628073576065z" style="fill:rgb(240,240,240); fill-opacity: 0.36"></path><path d="M-355.7716422610239,-25.451218719876657L-352.69380340467114,-24.41568120289682L-316.2794872645384,-22.975721665703933z" style="fill:rgb(254,144,144); fill-opacity: 0.7"></path><path d="M-355.7716422354181,-25.45121800788574L-355.7716422354181,-17.336887690735832M-355.7716422354181,-17.336887690735832L-352.69380347079215,-16.301350204617414M-355.77164566366304,-25.451218531654817L-355.77164566366304,-17.336887247201243M-355.77164566366304,-17.336887247201243L-513.6147082221902,-8.605573158529646M-355.77164566366304,-17.336887247201243L-352.6938068073103,-16.301349730221403M-355.7716422354181,-25.45121800788574L-352.69380347079215,-24.415680521767325M-355.77164566366304,-25.451218531654817L-513.6147082221902,-16.71990444298322M-355.77164566366304,-25.451218531654817L-352.6938068073103,-24.41568101467498" style="fill:none;stroke:rgb(0,0,0);stroke-width:1;stroke-linecap:round"></path><path d="M-352.69380340467114,-24.41568120289682L-352.69380340467114,-16.301349918443243L-316.2794872645384,-22.975721665703933zM-355.7716422610239,-25.451218719876657L-355.7716422610239,-17.336887435423083L-352.69380340467114,-16.301349918443243z" style="fill:rgb(254,144,144); fill-opacity: 0.7"></path><path d="M-352.69380680731035,-16.301349730221403L-355.7716456636631,-17.33688724720124L-355.7716456636631,-25.451218531654817z" style="fill:rgb(75,179,231); fill-opacity: 0.7"></path><path d="M-355.7716422610239,-25.451218719876657L-352.69380340467114,-16.301349918443243L-352.69380340467114,-24.41568120289682z" style="fill:rgb(254,144,144); fill-opacity: 0.7"></path><path d="M-352.69380680731035,-24.41568101467498L-352.69380680731035,-16.301349730221403L-355.7716456636631,-25.451218531654817z" style="fill:rgb(75,179,231); fill-opacity: 0.7"></path><path d="M-352.69380347079215,-16.301350204617414L-352.69380347079215,-24.415680521767325M-510.53686936583733,-7.570035641549807L-352.6938068073103,-16.301349730221403M-352.6938068073103,-24.41568101467498L-352.6938068073103,-16.301349730221403M-510.53686936583733,-15.684366926003381L-352.6938068073103,-24.41568101467498" style="fill:none;stroke:rgb(0,0,0);stroke-width:1;stroke-linecap:round"></path><path d="M-342.422836627792,-42.99779460014436L-342.422836627792,35.35928128337944L-372.14438044577156,-52.99759482443225zM-342.422836627792,-42.99779460014436L-372.14438044577156,-52.99759482443225L-529.9874430042986,-44.26628073576065z" style="fill:rgb(240,240,240); fill-opacity: 0.36"></path><path d="M-304.46959791707974,-45.09723212051485L-304.46959791707974,33.259843763008945M-574.3408713719691,-61.193460351675945L-574.3408713719691,50.91017073626797M-574.3408713719691,50.91017073626797L-732.1839339304962,59.64148482493956M-574.3408713719691,50.91017073626797L-531.8189555658237,65.21665043394164M-529.9874430042986,-44.26628073576065L-529.9874430042986,34.090795147763146M-529.9874430042986,34.090795147763146L-500.26589918631896,44.090595372051034" style="fill:none;stroke:rgb(0,0,0);stroke-width:1;stroke-linecap:round"></path><path d="M-500.2658991863191,44.090595372051034L-529.9874430042986,34.090795147763146L-372.14438044577156,25.35948105909155z" style="fill:rgb(240,240,240); fill-opacity: 0.36"></path><path d="M-355.7716456636631,-25.451218531654817L-355.7716456636631,-17.33688724720124L-513.6147082221902,-16.719904442983218z" style="fill:rgb(75,179,231); fill-opacity: 0.7"></path><path d="M-342.422836627792,35.35928128337944L-500.2658991863191,44.090595372051034L-372.14438044577156,25.35948105909155z" style="fill:rgb(240,240,240); fill-opacity: 0.36"></path><path d="M-352.69380680731035,-24.41568101467498L-355.7716456636631,-25.451218531654817L-513.6147082221902,-16.719904442983218z" style="fill:rgb(75,179,231); fill-opacity: 0.7"></path><path d="M-500.26589918631896,44.090595372051034L-342.4228366277919,35.35928128337944M-342.4228366277919,-42.99779460014436L-342.4228366277919,35.35928128337944" style="fill:none;stroke:rgb(0,0,0);stroke-width:1;stroke-linecap:round"></path><path d="M-352.69380680731035,-16.301349730221403L-510.53686936583745,-7.570035641549803L-355.7716456636631,-17.33688724720124z" style="fill:rgb(75,179,231); fill-opacity: 0.7"></path><path d="M-529.9874430042986,-44.26628073576065L-500.26589918631896,-34.266480511472764" style="fill:none;stroke:rgb(0,0,0);stroke-width:1;stroke-linecap:round"></path><path d="M-510.53686936583745,-7.570035641549803L-352.69380680731035,-16.301349730221403L-352.69380680731035,-24.41568101467498z" style="fill:rgb(75,179,231); fill-opacity: 0.7"></path><path d="M-574.3408713719691,-61.193460351675945L-732.1839339304962,-52.462146263004335M-574.3408713719691,-61.193460351675945L-531.8189555658237,-46.886980654002265M-500.26589918631896,-34.266480511472764L-342.4228366277919,-42.99779460014436" style="fill:none;stroke:rgb(0,0,0);stroke-width:1;stroke-linecap:round"></path><path d="M-355.7716456636631,-17.33688724720124L-513.6147082221902,-8.605573158529644L-513.6147082221902,-16.719904442983218zM-510.53686936583745,-7.570035641549803L-513.6147082221902,-8.605573158529644L-355.7716456636631,-17.33688724720124z" style="fill:rgb(75,179,231); fill-opacity: 0.7"></path><path d="M-574.3408713719691,-61.193460351675945L-574.3408713719691,50.910170736267965L-732.1839339304962,-52.46214626300435zM-529.9874430042986,-44.26628073576065L-529.9874430042986,34.090795147763146L-500.2658991863191,-34.266480511472764z" style="fill:rgb(240,240,240); fill-opacity: 0.36"></path><path d="M-510.53686936583745,-15.684366926003381L-352.69380680731035,-24.41568101467498L-513.6147082221902,-16.719904442983218zM-510.53686936583745,-15.684366926003381L-510.53686936583745,-7.570035641549803L-352.69380680731035,-24.41568101467498z" style="fill:rgb(75,179,231); fill-opacity: 0.7"></path><path d="M-500.2658991863191,44.090595372051034L-342.422836627792,35.35928128337944L-342.422836627792,-42.99779460014436zM-531.8189555658237,65.21665043394164L-574.3408713719691,50.910170736267965L-574.3408713719691,-61.193460351675945zM-500.2658991863191,-34.266480511472764L-342.422836627792,-42.99779460014436L-529.9874430042986,-44.26628073576065zM-574.3408713719691,50.910170736267965L-732.1839339304962,59.64148482493956L-732.1839339304962,-52.46214626300435z" style="fill:rgb(240,240,240); fill-opacity: 0.36"></path><path d="M-513.6147082221902,-16.71990444298322L-513.6147082221902,-8.605573158529646M-513.6147082221902,-8.605573158529646L-510.53686936583733,-7.570035641549807M-513.6147082221902,-16.71990444298322L-510.53686936583733,-15.684366926003381" style="fill:none;stroke:rgb(0,0,0);stroke-width:1;stroke-linecap:round"></path><path d="M-513.6147082221902,-16.719904442983218L-513.6147082221902,-8.605573158529644L-510.53686936583745,-15.684366926003381z" style="fill:rgb(75,179,231); fill-opacity: 0.7"></path><path d="M-529.9874430042986,34.090795147763146L-500.2658991863191,44.090595372051034L-500.2658991863191,-34.266480511472764z" style="fill:rgb(240,240,240); fill-opacity: 0.36"></path><path d="M-513.6147082221902,-8.605573158529644L-510.53686936583745,-7.570035641549803L-510.53686936583745,-15.684366926003381z" style="fill:rgb(75,179,231); fill-opacity: 0.7"></path><path d="M-510.53686936583733,-15.684366926003381L-510.53686936583733,-7.570035641549807" style="fill:none;stroke:rgb(0,0,0);stroke-width:1;stroke-linecap:round"></path><path d="M-500.2658991863191,-34.266480511472764L-500.2658991863191,44.090595372051034L-342.422836627792,-42.99779460014436z" style="fill:rgb(240,240,240); fill-opacity: 0.36"></path><path d="M-732.1839339304962,-52.462146263004335L-732.1839339304962,59.64148482493956M-732.1839339304962,59.64148482493956L-689.6620181243507,73.94796452261325" style="fill:none;stroke:rgb(0,0,0);stroke-width:1;stroke-linecap:round"></path><path d="M-531.8189555658237,-46.88698065400227L-574.3408713719691,-61.193460351675945L-732.1839339304962,-52.46214626300435z" style="fill:rgb(240,240,240); fill-opacity: 0.36"></path><path d="M-538.8049665112538,-8.244437682249606L-503.5354287781287,-2.459889038157336M-538.8049665112538,3.9270587607789236L-503.5354287781287,-2.459889038157336M-534.1882082267247,5.480365036248683L-503.5354287781287,-2.459889038157336M-534.1882082267247,-6.691131406779846L-503.5354287781287,-2.459889038157336M-500.26589918631896,-34.266480511472764L-500.26589918631896,44.090595372051034" style="fill:none;stroke:rgb(0,0,0);stroke-width:1;stroke-linecap:round"></path><path d="M-689.6620181243507,73.94796452261323L-732.1839339304962,59.64148482493956L-574.3408713719691,50.910170736267965z" style="fill:rgb(240,240,240); fill-opacity: 0.36"></path><path d="M-770.1371724497839,-50.36270875322277L-770.1371724497839,61.74092233472114M-770.1371724497839,61.74092233472114L-820.1722425411773,64.50868358653203M-770.1371724497839,61.74092233472114L-727.6152566436384,76.04740203239481M-732.1839339304962,-52.462146263004335L-689.6620181243507,-38.15566656533067" style="fill:none;stroke:rgb(0,0,0);stroke-width:1;stroke-linecap:round"></path><path d="M-531.8189555658237,-46.88698065400227L-531.8189555658237,65.21665043394164L-574.3408713719691,-61.193460351675945z" style="fill:rgb(240,240,240); fill-opacity: 0.36"></path><path d="M-538.8049700014949,3.927058897361466L-538.8049700014949,-8.2444380293189L-503.53543179990686,-2.4598889649366225z" style="fill:rgb(254,144,144); fill-opacity: 0.7"></path><path d="M-531.8189555658237,65.21665043394164L-689.6620181243507,73.94796452261323L-574.3408713719691,50.910170736267965z" style="fill:rgb(240,240,240); fill-opacity: 0.36"></path><path d="M-534.1882117169658,5.480365172831226L-538.8049700014949,3.927058897361466L-503.53543179990686,-2.4598889649366225zM-538.8049700014949,-8.2444380293189L-534.1882117169658,-6.69113175384914L-503.53543179990686,-2.4598889649366225z" style="fill:rgb(254,144,144); fill-opacity: 0.7"></path><path d="M-770.1371724497839,-50.36270875322277L-820.1722425411773,-47.59494750141187M-770.1371724497839,-50.36270875322277L-727.6152566436384,-36.056229055549096M-538.8049665112538,-8.244437682249606L-538.8049665112538,3.9270587607789236M-538.8049665112538,3.9270587607789236L-534.1882082267247,5.480365036248683M-538.8049734041341,-8.24443784109706L-538.8049734041341,3.927059085583304M-538.8049734041341,3.927059085583304L-696.6480359626612,12.658373174254901M-538.8049734041341,3.927059085583304L-534.1882151196049,5.480365361053063" style="fill:none;stroke:rgb(0,0,0);stroke-width:1;stroke-linecap:round"></path><path d="M-770.1371724497839,-50.36270875322277L-770.1371724497839,61.74092233472113L-820.1722425411772,-47.59494750141189z" style="fill:rgb(240,240,240); fill-opacity: 0.36"></path><path d="M-534.1882117169658,-6.69113175384914L-534.1882117169658,5.480365172831226L-503.53543179990686,-2.4598889649366225z" style="fill:rgb(254,144,144); fill-opacity: 0.7"></path><path d="M-538.8049665112538,-8.244437682249606L-534.1882082267247,-6.691131406779846M-538.8049734041341,-8.24443784109706L-696.6480359626612,0.4868762475745379M-538.8049734041341,-8.24443784109706L-534.1882151196049,-6.6911315656273" style="fill:none;stroke:rgb(0,0,0);stroke-width:1;stroke-linecap:round"></path><path d="M-770.1371724497839,61.74092233472113L-820.1722425411772,64.50868358653202L-820.1722425411772,-47.59494750141189z" style="fill:rgb(240,240,240); fill-opacity: 0.36"></path><path d="M-820.1722425411773,-47.59494750141187L-820.1722425411773,64.50868358653203M-820.1722425411773,64.50868358653203L-777.6503267350319,78.81516328420571" style="fill:none;stroke:rgb(0,0,0);stroke-width:1;stroke-linecap:round"></path><path d="M-538.8049700014949,-8.2444380293189L-538.8049700014949,3.927058897361466L-534.1882117169658,5.480365172831226z" style="fill:rgb(254,144,144); fill-opacity: 0.7"></path><path d="M-534.1882151196049,5.480365361053064L-538.8049734041341,3.9270590855833047L-538.8049734041341,-8.24443784109706z" style="fill:rgb(75,179,231); fill-opacity: 0.7"></path><path d="M-538.8049700014949,-8.2444380293189L-534.1882117169658,5.480365172831226L-534.1882117169658,-6.69113175384914z" style="fill:rgb(254,144,144); fill-opacity: 0.7"></path><path d="M-534.1882151196049,-6.6911315656273L-534.1882151196049,5.480365361053064L-538.8049734041341,-8.24443784109706z" style="fill:rgb(75,179,231); fill-opacity: 0.7"></path><path d="M-689.6620181243507,73.94796452261325L-531.8189555658237,65.21665043394164M-531.8189555658237,-46.886980654002265L-531.8189555658237,65.21665043394164M-534.1882082267247,5.480365036248683L-534.1882082267247,-6.691131406779846M-692.031277678132,14.21167944972466L-534.1882151196049,5.480365361053063M-534.1882151196049,-6.6911315656273L-534.1882151196049,5.480365361053063M-757.3161294230123,10.68274279486465L-717.0545147124385,15.445707170308689M-757.3161294230123,22.85423984245797L-717.0545147124385,15.445707170308689M-752.6993711384831,24.40754611792773L-717.0545147124385,15.445707170308689M-752.6993711384831,12.23604907033441L-717.0545147124385,15.445707170308689M-692.031277678132,2.0401825230442974L-534.1882151196049,-6.6911315656273" style="fill:none;stroke:rgb(0,0,0);stroke-width:1;stroke-linecap:round"></path><path d="M-732.1839339304962,-52.46214626300435L-732.1839339304962,59.64148482493956L-689.6620181243507,-38.15566656533067z" style="fill:rgb(240,240,240); fill-opacity: 0.36"></path><path d="M-757.3161248044381,22.854239559125702L-757.3161248044381,10.682742632445336L-717.0545100938646,15.445706886976417z" style="fill:rgb(254,144,144); fill-opacity: 0.7"></path><path d="M-820.1722425411773,-47.59494750141187L-777.6503267350319,-33.2884678037382M-757.3161243527775,10.682742607461083L-757.3161243527775,22.854239534141445M-757.3161243527775,22.854239534141445L-807.3511944441709,25.62200078595234M-757.3161243527775,22.854239534141445L-752.6993660682484,24.407545809611204M-757.3161294230123,10.68274279486465L-757.3161294230123,22.85423984245797M-757.3161294230123,22.85423984245797L-752.6993711384831,24.40754611792773" style="fill:none;stroke:rgb(0,0,0);stroke-width:1;stroke-linecap:round"></path><path d="M-752.6993665199092,24.40754583459546L-757.3161248044381,22.854239559125702L-717.0545100938646,15.445706886976417z" style="fill:rgb(254,144,144); fill-opacity: 0.7"></path><path d="M-538.8049734041341,-8.24443784109706L-538.8049734041341,3.9270590855833047L-696.6480359626612,0.48687624757453707z" style="fill:rgb(75,179,231); fill-opacity: 0.7"></path><path d="M-757.3161243527775,10.682742607461083L-807.3511944441709,13.450503859271976M-757.3161243527775,10.682742607461083L-752.6993660682484,12.236048882930843M-757.3161294230123,10.68274279486465L-752.6993711384831,12.23604907033441" style="fill:none;stroke:rgb(0,0,0);stroke-width:1;stroke-linecap:round"></path><path d="M-757.3161248044381,10.682742632445336L-752.6993665199092,12.236048907915096L-717.0545100938646,15.445706886976417z" style="fill:rgb(254,144,144); fill-opacity: 0.7"></path><path d="M-727.6152566436384,76.0474020323948L-770.1371724497839,61.74092233472113L-770.1371724497839,-50.36270875322277z" style="fill:rgb(240,240,240); fill-opacity: 0.36"></path><path d="M-689.6620181243507,-38.15566656533067L-531.8189555658237,-46.886980654002265" style="fill:none;stroke:rgb(0,0,0);stroke-width:1;stroke-linecap:round"></path><path d="M-752.6993660682484,24.407545809611204L-757.3161243527776,22.85423953414145L-757.3161243527776,10.682742607461082z" style="fill:rgb(75,179,231); fill-opacity: 0.7"></path><path d="M-757.3161248044381,10.682742632445336L-757.3161248044381,22.854239559125702L-752.6993665199092,24.40754583459546zM-752.6993665199092,12.236048907915096L-752.6993665199092,24.40754583459546L-717.0545100938646,15.445706886976417z" style="fill:rgb(254,144,144); fill-opacity: 0.7"></path><path d="M-534.1882151196049,-6.6911315656273L-538.8049734041341,-8.24443784109706L-696.6480359626612,0.48687624757453707zM-534.1882151196049,5.480365361053064L-692.031277678132,14.21167944972466L-538.8049734041341,3.9270590855833047zM-757.3161243527776,10.682742607461082L-757.3161243527776,22.85423953414145L-807.3511944441709,13.450503859271974zM-752.6993660682484,12.236048882930842L-752.6993660682484,24.407545809611204L-757.3161243527776,10.682742607461082z" style="fill:rgb(75,179,231); fill-opacity: 0.7"></path><path d="M-757.3161248044381,10.682742632445336L-752.6993665199092,24.40754583459546L-752.6993665199092,12.236048907915096z" style="fill:rgb(254,144,144); fill-opacity: 0.7"></path><path d="M-777.6503267350319,78.8151632842057L-820.1722425411772,64.50868358653202L-770.1371724497839,61.74092233472113zM-689.6620181243507,-38.15566656533067L-531.8189555658237,-46.88698065400227L-732.1839339304962,-52.46214626300435z" style="fill:rgb(240,240,240); fill-opacity: 0.36"></path><path d="M-802.7344361596419,27.1753070614221L-752.6993660682484,24.407545809611204M-752.6993660682484,12.236048882930843L-752.6993660682484,24.407545809611204M-752.6993711384831,24.40754611792773L-752.6993711384831,12.23604907033441" style="fill:none;stroke:rgb(0,0,0);stroke-width:1;stroke-linecap:round"></path><path d="M-692.031277678132,14.21167944972466L-534.1882151196049,5.480365361053064L-534.1882151196049,-6.6911315656273zM-752.6993660682484,12.236048882930842L-757.3161243527776,10.682742607461082L-807.3511944441709,13.450503859271974z" style="fill:rgb(75,179,231); fill-opacity: 0.7"></path><path d="M-802.7344361596419,15.003810134741737L-752.6993660682484,12.236048882930843" style="fill:none;stroke:rgb(0,0,0);stroke-width:1;stroke-linecap:round"></path><path d="M-757.3161243527776,22.85423953414145L-807.3511944441709,25.622000785952338L-807.3511944441709,13.450503859271974zM-752.6993660682484,24.407545809611204L-802.7344361596417,27.175307061422096L-757.3161243527776,22.85423953414145z" style="fill:rgb(75,179,231); fill-opacity: 0.7"></path><path d="M-689.6620181243507,73.94796452261323L-531.8189555658237,65.21665043394164L-531.8189555658237,-46.88698065400227z" style="fill:rgb(240,240,240); fill-opacity: 0.36"></path><path d="M-802.7344361596417,27.175307061422096L-807.3511944441709,25.622000785952338L-757.3161243527776,22.85423953414145zM-802.7344361596417,27.175307061422096L-752.6993660682484,24.407545809611204L-752.6993660682484,12.236048882930842z" style="fill:rgb(75,179,231); fill-opacity: 0.7"></path><path d="M-727.6152566436384,-36.056229055549096L-770.1371724497839,-50.36270875322277L-820.1722425411772,-47.59494750141189z" style="fill:rgb(240,240,240); fill-opacity: 0.36"></path><path d="M-807.3511944441709,13.450503859271976L-807.3511944441709,25.62200078595234M-807.3511944441709,25.62200078595234L-802.7344361596419,27.1753070614221M-807.3511944441709,13.450503859271976L-802.7344361596419,15.003810134741737" style="fill:none;stroke:rgb(0,0,0);stroke-width:1;stroke-linecap:round"></path><path d="M-538.8049734041341,3.9270590855833047L-696.6480359626612,12.658373174254901L-696.6480359626612,0.48687624757453707z" style="fill:rgb(75,179,231); fill-opacity: 0.7"></path><path d="M-732.1839339304962,59.64148482493956L-689.6620181243507,73.94796452261323L-689.6620181243507,-38.15566656533067z" style="fill:rgb(240,240,240); fill-opacity: 0.36"></path><path d="M-802.7344361596417,15.003810134741734L-752.6993660682484,12.236048882930842L-807.3511944441709,13.450503859271974zM-807.3511944441709,13.450503859271974L-807.3511944441709,25.622000785952338L-802.7344361596417,15.003810134741734zM-692.031277678132,14.21167944972466L-696.6480359626612,12.658373174254901L-538.8049734041341,3.9270590855833047zM-802.7344361596417,15.003810134741734L-802.7344361596417,27.175307061422096L-752.6993660682484,12.236048882930842z" style="fill:rgb(75,179,231); fill-opacity: 0.7"></path><path d="M-820.1722425411772,-47.59494750141189L-820.1722425411772,64.50868358653202L-777.6503267350319,-33.28846780373821z" style="fill:rgb(240,240,240); fill-opacity: 0.36"></path><path d="M-807.3511944441709,25.622000785952338L-802.7344361596417,27.175307061422096L-802.7344361596417,15.003810134741734zM-692.031277678132,2.0401825230442965L-534.1882151196049,-6.6911315656273L-696.6480359626612,0.48687624757453707z" style="fill:rgb(75,179,231); fill-opacity: 0.7"></path><path d="M-802.7344361596419,15.003810134741737L-802.7344361596419,27.1753070614221" style="fill:none;stroke:rgb(0,0,0);stroke-width:1;stroke-linecap:round"></path><path d="M-692.031277678132,2.0401825230442965L-692.031277678132,14.21167944972466L-534.1882151196049,-6.6911315656273z" style="fill:rgb(75,179,231); fill-opacity: 0.7"></path><path d="M-727.6152566436384,76.0474020323948L-777.6503267350319,78.8151632842057L-770.1371724497839,61.74092233472113zM-689.6620181243507,-38.15566656533067L-689.6620181243507,73.94796452261323L-531.8189555658237,-46.88698065400227zM-727.6152566436384,-36.056229055549096L-727.6152566436384,76.0474020323948L-770.1371724497839,-50.36270875322277z" style="fill:rgb(240,240,240); fill-opacity: 0.36"></path><path d="M-696.6480359626612,0.4868762475745379L-696.6480359626612,12.658373174254901M-696.6480359626612,12.658373174254901L-692.031277678132,14.21167944972466M-696.6480359626612,0.4868762475745379L-692.031277678132,2.0401825230442974" style="fill:none;stroke:rgb(0,0,0);stroke-width:1;stroke-linecap:round"></path><path d="M-696.6480359626612,0.48687624757453707L-696.6480359626612,12.658373174254901L-692.031277678132,2.0401825230442965zM-696.6480359626612,12.658373174254901L-692.031277678132,14.21167944972466L-692.031277678132,2.0401825230442965z" style="fill:rgb(75,179,231); fill-opacity: 0.7"></path><path d="M-689.6620181243507,-38.15566656533067L-689.6620181243507,73.94796452261325M-692.031277678132,2.0401825230442974L-692.031277678132,14.21167944972466" style="fill:none;stroke:rgb(0,0,0);stroke-width:1;stroke-linecap:round"></path><path d="M-820.1722425411772,64.50868358653202L-777.6503267350319,78.8151632842057L-777.6503267350319,-33.28846780373821zM-777.6503267350319,-33.28846780373821L-727.6152566436384,-36.056229055549096L-820.1722425411772,-47.59494750141189z" style="fill:rgb(240,240,240); fill-opacity: 0.36"></path><path d="M-777.6503267350319,78.81516328420571L-727.6152566436384,76.04740203239481M-727.6152566436384,-36.056229055549096L-727.6152566436384,76.04740203239481" style="fill:none;stroke:rgb(0,0,0);stroke-width:1;stroke-linecap:round"></path><path d="M-777.6503267350319,78.8151632842057L-727.6152566436384,76.0474020323948L-727.6152566436384,-36.056229055549096z" style="fill:rgb(240,240,240); fill-opacity: 0.36"></path><path d="M-777.6503267350319,-33.2884678037382L-727.6152566436384,-36.056229055549096M-777.6503267350319,-33.2884678037382L-777.6503267350319,78.81516328420571" style="fill:none;stroke:rgb(0,0,0);stroke-width:1;stroke-linecap:round"></path><path d="M-777.6503267350319,-33.28846780373821L-777.6503267350319,78.8151632842057L-727.6152566436384,-36.056229055549096z" style="fill:rgb(240,240,240); fill-opacity: 0.36"></path></svg>